<svg width="419" height="346" viewBox="0 0 419 346" fill="none" xmlns="http://www.w3.org/2000/svg">
<g clip-path="url(#clip0_19426_49573)">
<g opacity="0.8">
<path d="M415.736 413.798C415.578 413.989 415.349 414.107 415.104 414.13C414.537 414.183 414.421 414.194 379.743 385.212C361.49 369.951 336.106 348.684 304.291 321.968C253.478 279.313 202.149 236.136 195.525 230.562L155.394 278.475L374.29 461.834C374.685 462.161 374.733 462.748 374.406 463.142C374.079 463.537 373.492 463.585 373.098 463.258L153.489 279.296C153.094 278.969 153.046 278.382 153.373 277.988L194.702 228.644C194.86 228.454 195.089 228.335 195.334 228.312C195.579 228.289 195.826 228.363 196.01 228.528C270.266 291.007 411.249 409.461 415.426 412.365C415.494 412.398 415.556 412.437 415.62 412.49C416.014 412.817 416.063 413.404 415.736 413.798Z" fill="#B5BBBE"/>
<path d="M333.124 350.3L339.844 355.93L345.474 349.21L338.754 343.58L333.124 350.3Z" fill="#B5BBBE"/>
<path d="M319.366 338.773L326.086 344.402L331.716 337.683L324.996 332.053L319.366 338.773Z" fill="#B5BBBE"/>
<path d="M318.402 337.985L325.123 343.613L330.751 336.893L324.031 331.264L318.402 337.985Z" fill="#B5BBBE"/>
<path d="M304.695 326.491L311.414 332.121L317.044 325.401L310.324 319.772L304.695 326.491Z" fill="#B5BBBE"/>
<path d="M440.89 383.768C440.563 384.163 439.976 384.211 439.581 383.884L254.235 228.632L229.606 258.029C229.279 258.423 228.692 258.472 228.298 258.144C227.903 257.817 227.855 257.231 228.182 256.836L253.406 226.721C253.733 226.326 254.32 226.278 254.715 226.605L440.767 382.454C441.161 382.781 441.21 383.368 440.883 383.762L440.89 383.768Z" fill="#B5BBBE"/>
<path d="M245.473 239.104C245.146 239.498 244.559 239.547 244.165 239.22L120.417 135.562C120.022 135.235 119.974 134.648 120.301 134.254C120.628 133.859 121.214 133.811 121.609 134.138L245.357 237.795C245.752 238.122 245.8 238.709 245.473 239.104Z" fill="#B5BBBE"/>
<path d="M121.415 135.188C118.48 138.686 113.246 139.15 109.755 136.22C106.258 133.285 105.794 128.052 108.723 124.561C111.658 121.063 116.892 120.6 120.39 123.535C123.888 126.47 124.351 131.703 121.416 135.201L121.415 135.188ZM110.147 125.753C107.873 128.468 108.233 132.522 110.948 134.796C113.663 137.07 117.717 136.71 119.991 133.996C122.265 131.281 121.905 127.227 119.19 124.953C116.475 122.679 112.422 123.039 110.147 125.753Z" fill="#B5BBBE"/>
<path d="M117.642 126.807C119.341 128.228 119.557 130.748 118.137 132.447C116.716 134.146 114.196 134.363 112.497 132.943C110.798 131.522 110.581 129.002 112.002 127.303C113.422 125.604 115.943 125.387 117.642 126.807Z" fill="#B5BBBE"/>
<path d="M240.961 180.45C240.634 180.844 240.047 180.893 239.653 180.566L147.275 103.185C146.881 102.858 146.832 102.271 147.159 101.877C147.486 101.482 148.073 101.434 148.468 101.761L240.845 179.141C241.24 179.468 241.288 180.055 240.961 180.45Z" fill="#B5BBBE"/>
<path d="M148.274 102.813C145.339 106.311 140.105 106.775 136.614 103.845C133.123 100.916 132.653 95.6768 135.588 92.1789C138.523 88.681 143.757 88.2175 147.247 91.1467C150.745 94.0818 151.209 99.3153 148.28 102.806L148.274 102.813ZM137.006 93.3785C134.732 96.0932 135.092 100.147 137.807 102.421C140.522 104.695 144.576 104.335 146.85 101.621C149.124 98.906 148.764 94.8521 146.049 92.578C143.334 90.304 139.28 90.6638 137.006 93.3785Z" fill="#B5BBBE"/>
<path d="M144.5 94.4325C146.199 95.8527 146.416 98.3734 144.995 100.072C143.575 101.771 141.054 101.988 139.355 100.568C137.656 99.1473 137.44 96.6266 138.86 94.9276C140.28 93.2285 142.801 93.0122 144.5 94.4325Z" fill="#B5BBBE"/>
<path d="M166.98 264.009C166.653 264.404 166.066 264.452 165.671 264.125L148.325 249.592C147.931 249.265 147.882 248.678 148.209 248.284C148.536 247.889 149.123 247.841 149.518 248.168L166.864 262.701C167.258 263.028 167.307 263.614 166.98 264.009Z" fill="#B5BBBE"/>
<path d="M149.33 249.227C146.395 252.725 141.162 253.189 137.671 250.26C134.173 247.324 133.709 242.091 136.645 238.593C139.58 235.095 144.813 234.632 148.304 237.561C151.802 240.496 152.266 245.729 149.336 249.22L149.33 249.227ZM138.063 239.793C135.789 242.507 136.149 246.561 138.863 248.835C141.578 251.109 145.632 250.75 147.906 248.035C150.18 245.32 149.82 241.266 147.106 238.992C144.391 236.718 140.337 237.078 138.063 239.793Z" fill="#B5BBBE"/>
<path d="M145.55 240.839C147.249 242.259 147.465 244.78 146.045 246.479C144.625 248.178 142.104 248.394 140.405 246.974C138.706 245.554 138.49 243.033 139.91 241.334C141.33 239.635 143.851 239.418 145.55 240.839Z" fill="#B5BBBE"/>
<path d="M214.877 127.537C214.55 127.932 213.964 127.98 213.569 127.653L124.491 53.0311C124.096 52.7041 124.048 52.1172 124.375 51.7227C124.702 51.3282 125.289 51.2798 125.683 51.6068L214.761 126.229C215.156 126.556 215.204 127.143 214.877 127.537Z" fill="#B5BBBE"/>
<path d="M125.491 52.6706C122.556 56.1685 117.322 56.6321 113.831 53.7029C110.326 50.7619 109.863 45.5284 112.798 42.0305C115.733 38.5326 120.967 38.069 124.464 41.0041C127.962 43.9392 128.426 49.1727 125.491 52.6706ZM114.223 43.2359C111.949 45.9506 112.309 50.0046 115.024 52.2786C117.739 54.5526 121.793 54.1929 124.067 51.4782C126.341 48.7634 125.981 44.7095 123.266 42.4354C120.551 40.1614 116.497 40.5212 114.223 43.2359Z" fill="#B5BBBE"/>
<path d="M121.71 44.284C123.409 45.7043 123.626 48.225 122.205 49.924C120.785 51.623 118.264 51.8394 116.565 50.4191C114.866 48.9989 114.65 46.4782 116.07 44.7791C117.49 43.0801 120.011 42.8638 121.71 44.284Z" fill="#B5BBBE"/>
<path d="M229.568 110.001C229.241 110.395 228.654 110.444 228.26 110.117L203.144 89.0841C202.75 88.7571 202.701 88.1702 203.028 87.7757C203.355 87.3812 203.942 87.3328 204.337 87.6598L229.452 108.692C229.847 109.019 229.895 109.606 229.568 110.001Z" fill="#B5BBBE"/>
<path d="M204.155 88.7078C201.22 92.2057 195.987 92.6693 192.496 89.74C188.998 86.8049 188.534 81.5714 191.47 78.0735C194.405 74.5756 199.638 74.112 203.129 77.0413C206.627 79.9764 207.09 85.2099 204.161 88.7007L204.155 88.7078ZM192.888 79.273C190.614 81.9877 190.974 86.0417 193.688 88.3157C196.403 90.5897 200.457 90.23 202.731 87.5153C205.005 84.8006 204.645 80.7466 201.931 78.4726C199.216 76.1986 195.162 76.5583 192.888 79.273Z" fill="#B5BBBE"/>
<path d="M200.375 80.3231C202.074 81.7433 202.29 84.2641 200.87 85.9631C199.45 87.6621 196.929 87.8784 195.23 86.4582C193.531 85.038 193.315 82.5172 194.735 80.8182C196.155 79.1192 198.676 78.9029 200.375 80.3231Z" fill="#B5BBBE"/>
<path d="M185.49 304.884C185.338 305.067 185.116 305.192 184.858 305.216L163.698 307.085C163.453 307.108 163.206 307.034 163.022 306.869L140.888 288.332C140.494 288.005 140.438 287.412 140.772 287.024C141.099 286.629 141.686 286.581 142.081 286.908L163.918 305.199L184.698 303.359C185.213 303.311 185.658 303.692 185.712 304.2C185.736 304.458 185.655 304.7 185.496 304.877L185.49 304.884Z" fill="#B5BBBE"/>
<path d="M381.989 454.097C381.662 454.491 381.075 454.54 380.68 454.213L284.185 373.383C283.995 373.225 283.876 372.996 283.853 372.751L281.731 348.742L248.872 321.221L230.774 342.825C230.447 343.22 229.86 343.268 229.465 342.941C229.071 342.614 229.022 342.027 229.349 341.633L248.044 319.309C248.371 318.915 248.958 318.867 249.352 319.194L283.219 347.563C283.409 347.721 283.528 347.95 283.551 348.195L285.673 372.204L381.873 452.788C382.267 453.116 382.316 453.702 381.989 454.097Z" fill="#B5BBBE"/>
<path d="M142.532 281.175C144.909 283.168 145.227 286.713 143.233 289.089C141.24 291.466 137.695 291.784 135.319 289.791C132.942 287.797 132.624 284.252 134.617 281.876C136.611 279.499 140.155 279.181 142.532 281.175Z" fill="#B5BBBE"/>
<path d="M374.967 298.317C374.763 298.564 374.402 298.598 374.161 298.386L363.401 289.372C363.155 289.168 363.121 288.807 363.332 288.566C363.537 288.32 363.898 288.286 364.138 288.497L374.899 297.512C375.145 297.716 375.179 298.077 374.967 298.317Z" fill="#B5BBBE"/>
<path d="M363.905 285.581C365.032 286.515 365.177 288.204 364.235 289.326C363.301 290.453 361.612 290.598 360.491 289.656C359.363 288.722 359.218 287.033 360.16 285.912C361.094 284.784 362.783 284.639 363.905 285.581Z" fill="#B5BBBE"/>
<path d="M381.416 290.622C381.211 290.869 380.85 290.902 380.61 290.691L369.85 281.677C369.603 281.472 369.569 281.112 369.781 280.871C369.985 280.624 370.346 280.591 370.587 280.802L381.347 289.816C381.593 290.021 381.627 290.381 381.416 290.622Z" fill="#B5BBBE"/>
<path d="M370.346 277.882C371.473 278.816 371.618 280.505 370.677 281.626C369.742 282.754 368.053 282.899 366.932 281.957C365.805 281.023 365.66 279.334 366.601 278.212C367.535 277.085 369.224 276.94 370.346 277.882Z" fill="#B5BBBE"/>
<path d="M387.857 282.927C387.653 283.173 387.292 283.207 387.051 282.996L376.291 273.981C376.044 273.777 376.011 273.416 376.222 273.176C376.426 272.929 376.787 272.895 377.028 273.107L387.788 282.121C388.035 282.325 388.068 282.686 387.857 282.927Z" fill="#B5BBBE"/>
<path d="M376.794 270.19C377.921 271.125 378.066 272.814 377.125 273.935C376.191 275.062 374.502 275.207 373.38 274.266C372.253 273.331 372.108 271.642 373.049 270.521C373.984 269.394 375.673 269.249 376.794 270.19Z" fill="#B5BBBE"/>
<path d="M177.55 251.546C177.293 251.856 176.829 251.899 176.512 251.636L99.3369 186.987C99.0269 186.731 98.9835 186.267 99.2463 185.95C99.5032 185.64 99.9671 185.596 100.284 185.859L177.459 250.508C177.769 250.765 177.813 251.229 177.55 251.546Z" fill="#B5BBBE"/>
<path d="M100.648 181.345C102.531 182.918 102.772 185.709 101.2 187.591C99.628 189.473 96.8367 189.715 94.9545 188.143C93.0723 186.571 92.8307 183.779 94.4028 181.897C95.969 180.022 98.7661 179.773 100.648 181.345Z" fill="#B5BBBE"/>
<path d="M185.162 242.464C184.905 242.774 184.441 242.817 184.124 242.554L106.948 177.905C106.638 177.649 106.595 177.185 106.858 176.868C107.115 176.558 107.579 176.514 107.896 176.777L185.071 241.426C185.381 241.683 185.424 242.147 185.162 242.464Z" fill="#B5BBBE"/>
<path d="M108.253 172.26C110.128 173.826 110.377 176.623 108.805 178.505C107.238 180.38 104.441 180.629 102.559 179.057C100.677 177.485 100.435 174.694 102.007 172.811C103.579 170.929 106.371 170.687 108.253 172.26Z" fill="#B5BBBE"/>
<path d="M193.315 233.201C192.988 233.596 192.401 233.644 192.007 233.317L178.285 221.824C178.095 221.667 177.976 221.437 177.953 221.193L174.368 180.639C174.319 180.123 174.7 179.678 175.208 179.624C175.724 179.576 176.169 179.957 176.223 180.465L179.773 220.633L193.198 231.88C193.593 232.207 193.641 232.794 193.314 233.188L193.315 233.201Z" fill="#B5BBBE"/>
<path d="M448.91 374.194C448.583 374.589 447.996 374.637 447.602 374.31L349.133 291.833C348.943 291.675 348.824 291.445 348.801 291.201L345.485 253.676L248.01 172.021L213.94 212.693C213.613 213.087 213.026 213.136 212.632 212.809C212.237 212.482 212.189 211.895 212.516 211.5L247.175 170.117C247.502 169.723 248.089 169.674 248.484 170.001L346.974 252.497C347.164 252.654 347.283 252.884 347.306 253.129L350.621 290.653L448.794 372.886C449.189 373.213 449.237 373.8 448.91 374.194Z" fill="#B5BBBE"/>
<path d="M225.896 198.425C225.569 198.819 224.982 198.868 224.587 198.541L169.77 152.544C169.376 152.217 169.328 151.63 169.655 151.235L184.713 133.255C185.04 132.861 185.627 132.812 186.021 133.139C186.416 133.466 186.464 134.053 186.137 134.448L171.674 151.709L225.78 197.116C226.174 197.443 226.223 198.03 225.896 198.425Z" fill="#B5BBBE"/>
<path d="M484.33 331.906C484.003 332.301 483.416 332.349 483.022 332.022L378.868 244.773L362.632 246.208C362.388 246.23 362.14 246.156 361.956 245.991L231.157 136.43L213.538 157.47C213.211 157.865 212.624 157.913 212.23 157.586C211.835 157.259 211.787 156.672 212.114 156.278L230.335 134.525C230.662 134.13 231.249 134.082 231.644 134.409L362.859 244.328L379.095 242.893C379.34 242.87 379.588 242.945 379.772 243.11L484.221 330.604C484.616 330.931 484.664 331.518 484.337 331.912L484.33 331.906Z" fill="#B5BBBE"/>
<path d="M509.023 302.431C508.696 302.826 508.109 302.874 507.715 302.547L317.199 142.963L292.668 145.128C292.423 145.151 292.176 145.076 291.991 144.912L238.127 99.7875L199.597 145.782C199.27 146.177 198.683 146.225 198.289 145.898C197.894 145.571 197.846 144.985 198.173 144.59L237.298 97.8764C237.625 97.4819 238.212 97.4335 238.607 97.7606L292.894 143.235L317.425 141.07C317.67 141.047 317.917 141.122 318.102 141.286L508.913 301.116C509.307 301.443 509.356 302.03 509.029 302.424L509.023 302.431Z" fill="#B5BBBE"/>
<path d="M247.167 272.774L205.931 322.005C205.604 322.4 205.017 322.448 204.623 322.121C204.228 321.794 204.18 321.207 204.507 320.813L245.743 271.582C246.07 271.187 246.657 271.139 247.051 271.466C247.446 271.793 247.494 272.38 247.167 272.774Z" fill="#B5BBBE"/>
<path d="M255.963 280.175L214.739 329.392C214.412 329.786 213.825 329.835 213.431 329.508C213.036 329.181 212.988 328.594 213.315 328.199L254.539 278.982C254.866 278.588 255.453 278.54 255.847 278.867C256.242 279.194 256.29 279.78 255.963 280.175Z" fill="#B5BBBE"/>
<path d="M310.529 223.177L285.229 253.384C284.902 253.779 284.315 253.827 283.921 253.5C283.526 253.173 283.478 252.586 283.805 252.192L309.105 221.985C309.432 221.59 310.019 221.542 310.413 221.869C310.808 222.196 310.856 222.783 310.529 223.177Z" fill="#B5BBBE"/>
<path d="M316.932 228.544L291.632 258.751C291.305 259.146 290.718 259.194 290.323 258.867C289.929 258.54 289.88 257.953 290.207 257.559L315.508 227.352C315.835 226.957 316.422 226.909 316.816 227.236C317.211 227.563 317.259 228.15 316.932 228.544Z" fill="#B5BBBE"/>
<path d="M323.342 233.915L298.042 264.122C297.715 264.517 297.128 264.565 296.733 264.238C296.339 263.911 296.29 263.324 296.617 262.93L321.918 232.723C322.245 232.328 322.832 232.28 323.226 232.607C323.621 232.934 323.669 233.521 323.342 233.915Z" fill="#B5BBBE"/>
<path d="M329.751 239.275L304.45 269.482C304.123 269.876 303.536 269.925 303.142 269.598C302.747 269.271 302.699 268.684 303.026 268.289L328.326 238.082C328.653 237.688 329.24 237.639 329.635 237.966C330.029 238.293 330.078 238.88 329.751 239.275Z" fill="#B5BBBE"/>
<path d="M362.48 477.372C362.153 477.767 361.566 477.815 361.172 477.488L211.222 351.886C211.032 351.728 210.913 351.499 210.89 351.254L208.579 325.092C208.531 324.577 208.912 324.132 209.42 324.078C209.935 324.03 210.38 324.411 210.434 324.919L212.709 350.694L362.363 476.051C362.757 476.378 362.806 476.965 362.479 477.36L362.48 477.372Z" fill="#B5BBBE"/>
<path d="M366.18 182.78L334.584 220.497C334.257 220.892 333.67 220.94 333.275 220.613C332.881 220.286 332.832 219.699 333.159 219.305L364.756 181.588C365.083 181.193 365.67 181.145 366.065 181.472C366.459 181.799 366.507 182.386 366.18 182.78Z" fill="#B5BBBE"/>
<path d="M374.113 189.43L342.51 227.154C342.183 227.548 341.597 227.596 341.202 227.269C340.807 226.942 340.759 226.356 341.086 225.961L372.683 188.244C373.01 187.85 373.597 187.801 373.991 188.128C374.386 188.455 374.434 189.042 374.107 189.437L374.113 189.43Z" fill="#B5BBBE"/>
<path d="M265.181 262.212C261.341 266.802 254.477 267.412 249.886 263.559C245.296 259.718 244.687 252.854 248.54 248.263C252.38 243.673 259.244 243.064 263.835 246.917C268.425 250.757 269.034 257.621 265.181 262.212ZM249.958 249.463C246.772 253.264 247.278 258.948 251.079 262.134C254.879 265.321 260.564 264.815 263.75 261.014C266.936 257.213 266.43 251.529 262.63 248.342C258.829 245.156 253.144 245.662 249.958 249.463Z" fill="#B5BBBE"/>
<path d="M259.655 251.904C261.502 253.447 261.74 256.199 260.197 258.046C258.654 259.893 255.901 260.131 254.054 258.588C252.207 257.045 251.969 254.293 253.512 252.446C255.055 250.599 257.808 250.361 259.655 251.904Z" fill="#B5BBBE"/>
<path d="M415.907 232.025C416.935 232.878 417.073 234.418 416.207 235.448C415.355 236.477 413.815 236.614 412.785 235.749C411.756 234.896 411.619 233.356 412.478 232.333C413.331 231.305 414.871 231.167 415.894 232.027L415.907 232.025Z" fill="#B5BBBE"/>
<path d="M422.486 237.535C423.514 238.388 423.652 239.928 422.787 240.958C421.934 241.986 420.394 242.124 419.371 241.264C418.342 240.412 418.205 238.871 419.064 237.849C419.917 236.82 421.457 236.683 422.48 237.542L422.486 237.535Z" fill="#B5BBBE"/>
<path d="M191.986 281.447C193.127 282.393 193.274 284.095 192.321 285.23C191.368 286.366 189.673 286.518 188.537 285.565C187.396 284.619 187.25 282.917 188.203 281.781C189.149 280.64 190.851 280.494 191.986 281.447Z" fill="#B5BBBE"/>
<path d="M201.857 289.712C202.999 290.658 203.145 292.36 202.192 293.496C201.246 294.637 199.544 294.783 198.409 293.83C197.267 292.884 197.121 291.182 198.074 290.047C199.02 288.905 200.722 288.759 201.857 289.712Z" fill="#B5BBBE"/>
<path d="M211.723 297.986C212.864 298.932 213.01 300.634 212.057 301.769C211.111 302.91 209.409 303.057 208.274 302.104C207.133 301.158 206.986 299.456 207.94 298.32C208.886 297.179 210.588 297.033 211.723 297.986Z" fill="#B5BBBE"/>
<path d="M403.623 265.424L368.7 307.111C368.373 307.505 367.786 307.554 367.392 307.227C366.997 306.9 366.949 306.313 367.276 305.918L402.199 264.231C402.526 263.837 403.113 263.788 403.507 264.115C403.902 264.442 403.95 265.029 403.623 265.424Z" fill="#B5BBBE"/>
<path d="M410.103 270.853L375.18 312.54C374.853 312.935 374.266 312.983 373.872 312.656C373.477 312.329 373.429 311.742 373.756 311.348L408.679 269.661C409.006 269.266 409.593 269.218 409.988 269.545C410.382 269.872 410.43 270.459 410.103 270.853Z" fill="#B5BBBE"/>
<path d="M416.577 276.279L381.654 317.966C381.327 318.361 380.74 318.409 380.345 318.082C379.951 317.755 379.902 317.168 380.229 316.774L415.153 275.087C415.48 274.692 416.066 274.644 416.461 274.971C416.855 275.298 416.904 275.885 416.577 276.279Z" fill="#B5BBBE"/>
<path d="M423.056 281.697L388.133 323.384C387.806 323.779 387.219 323.827 386.824 323.5C386.43 323.173 386.381 322.586 386.708 322.192L421.632 280.505C421.959 280.11 422.545 280.062 422.94 280.389C423.334 280.716 423.383 281.303 423.056 281.697Z" fill="#B5BBBE"/>
<path d="M242.168 144.44L223.946 166.193C223.619 166.587 223.032 166.636 222.638 166.309C222.243 165.982 222.195 165.395 222.522 165L240.743 143.247C241.07 142.853 241.657 142.804 242.052 143.131C242.446 143.458 242.495 144.045 242.168 144.44Z" fill="#B5BBBE"/>
<path d="M247.329 148.768L229.108 170.521C228.781 170.915 228.194 170.964 227.799 170.637C227.405 170.31 227.357 169.723 227.684 169.328L245.905 147.575C246.232 147.181 246.819 147.133 247.213 147.46C247.608 147.787 247.656 148.373 247.329 148.768Z" fill="#B5BBBE"/>
<path d="M272.56 377.698C272.484 377.79 272.373 377.852 272.244 377.864C271.986 377.888 271.761 377.701 271.737 377.444L269.817 355.671L249.305 338.49L239.525 350.16C239.361 350.358 239.065 350.385 238.868 350.222C238.67 350.058 238.643 349.762 238.806 349.565L248.884 337.535C249.048 337.338 249.344 337.31 249.542 337.474L270.561 355.075C270.652 355.151 270.715 355.262 270.727 355.391L272.664 377.357C272.676 377.486 272.636 377.607 272.56 377.698Z" fill="#B5BBBE"/>
<path d="M287.627 204.409C287.551 204.5 287.44 204.563 287.311 204.575L264.907 206.554C264.784 206.559 264.657 206.525 264.566 206.449L237.186 183.516C236.989 183.353 236.961 183.056 237.125 182.859C237.288 182.662 237.584 182.634 237.782 182.798L265.013 205.608L287.23 203.64C287.488 203.616 287.713 203.803 287.737 204.061C287.749 204.189 287.709 204.31 287.633 204.402L287.627 204.409Z" fill="#B5BBBE"/>
<path d="M219.741 249.826L209.108 262.524C208.944 262.722 208.648 262.749 208.451 262.586L198.361 254.139C198.164 253.976 198.136 253.679 198.299 253.482L208.629 241.15C208.792 240.952 209.089 240.925 209.286 241.088C209.483 241.252 209.511 241.548 209.347 241.745L199.31 253.725L208.681 261.576L219.016 249.237C219.18 249.04 219.476 249.012 219.673 249.176C219.871 249.339 219.898 249.635 219.735 249.833L219.741 249.826Z" fill="#B5BBBE"/>
<path d="M234.584 262.263L223.951 274.962C223.787 275.159 223.491 275.187 223.294 275.023L213.204 266.577C213.007 266.413 212.979 266.117 213.142 265.92L223.472 253.587C223.635 253.39 223.932 253.362 224.129 253.526C224.326 253.689 224.354 253.985 224.19 254.183L214.153 266.163L223.524 274.014L233.859 261.674C234.023 261.477 234.319 261.45 234.516 261.613C234.714 261.777 234.741 262.073 234.578 262.27L234.584 262.263Z" fill="#B5BBBE"/>
<path d="M495.803 317.493C495.64 317.69 495.343 317.718 495.146 317.554L401.366 238.999C401.274 238.923 401.212 238.812 401.2 238.683L399.748 222.266L367.806 195.504C367.609 195.34 367.581 195.044 367.744 194.847C367.908 194.649 368.204 194.622 368.402 194.785L400.492 221.671C400.591 221.752 400.646 221.858 400.658 221.986L402.109 238.403L495.742 316.836C495.939 316.999 495.967 317.296 495.803 317.493Z" fill="#B5BBBE"/>
<path d="M337.961 159.142L305.699 197.662C305.535 197.859 305.239 197.887 305.042 197.724C304.844 197.56 304.817 197.264 304.98 197.066L337.243 158.546C337.406 158.349 337.703 158.321 337.9 158.485C338.097 158.648 338.125 158.945 337.961 159.142Z" fill="#B5BBBE"/>
<path d="M341.304 161.947L309.042 200.467C308.878 200.664 308.582 200.692 308.385 200.528C308.187 200.365 308.16 200.068 308.323 199.871L340.586 161.351C340.749 161.154 341.046 161.126 341.243 161.29C341.44 161.453 341.468 161.749 341.304 161.947Z" fill="#B5BBBE"/>
<path d="M344.646 164.74L312.383 203.26C312.22 203.457 311.923 203.485 311.726 203.321C311.529 203.158 311.501 202.861 311.665 202.664L343.927 164.144C344.091 163.947 344.387 163.919 344.584 164.083C344.782 164.246 344.809 164.542 344.646 164.74Z" fill="#B5BBBE"/>
<path d="M347.982 167.54L315.719 206.061C315.556 206.258 315.259 206.286 315.062 206.122C314.865 205.959 314.837 205.662 315.001 205.465L347.263 166.945C347.427 166.748 347.723 166.72 347.92 166.883C348.118 167.047 348.145 167.343 347.982 167.54Z" fill="#B5BBBE"/>
<path d="M427.863 398.594C427.7 398.792 427.403 398.819 427.206 398.656L302.435 294.139C302.337 294.057 302.287 293.944 302.269 293.823L299.819 266.036C299.795 265.779 299.982 265.553 300.24 265.529C300.497 265.505 300.723 265.692 300.747 265.949L303.186 293.548L427.809 397.943C428.006 398.106 428.034 398.403 427.87 398.6L427.863 398.594Z" fill="#B5BBBE"/>
<path d="M279.023 273.806L266.378 288.902C266.051 289.296 265.464 289.345 265.07 289.018C264.675 288.691 264.627 288.104 264.954 287.709L277.008 273.325L263.886 262.328C263.491 262.001 263.443 261.414 263.77 261.02C264.097 260.625 264.684 260.577 265.078 260.904L278.92 272.496C279.314 272.823 279.362 273.41 279.035 273.804L279.023 273.806Z" fill="#B5BBBE"/>
<path d="M238.735 246.414C238.572 246.611 238.275 246.639 238.078 246.475L176.211 194.646C176.013 194.482 175.986 194.186 176.149 193.989C176.313 193.791 176.609 193.764 176.806 193.927L238.674 245.756C238.871 245.92 238.899 246.216 238.735 246.414Z" fill="#B5BBBE"/>
</g>
</g>
<defs>
<clipPath id="clip0_19426_49573">
<rect width="231.343" height="471.233" fill="white" transform="translate(0 178.109) rotate(-50.3443)"/>
</clipPath>
</defs>
</svg>
