<svg width="44" height="49" viewBox="0 0 44 49" fill="none" xmlns="http://www.w3.org/2000/svg">
<path d="M42.4472 36.023V25.1079C42.4472 13.8109 33.292 4.65576 21.9951 4.65576C10.6981 4.65576 1.54297 13.8109 1.54297 25.1079V36.023H42.4472Z" fill="white"/>
<path d="M1.57369 33.2974C1.55175 33.666 1.54297 34.0391 1.54297 34.4165H42.4472C42.4472 34.0391 42.4384 33.666 42.4165 33.2974H1.57369Z" fill="#EDF3F6"/>
<path d="M38.8403 22.0973C38.8403 14.43 31.3002 8.21533 21.9958 8.21533C12.6914 8.21533 5.15137 14.43 5.15137 22.0973C5.15137 29.7647 12.6914 30.2957 21.9958 30.2957C31.3002 30.2957 38.8403 29.7647 38.8403 22.0973Z" fill="#25429B"/>
<path d="M42.4472 36.0229C42.4472 43.1329 33.292 48.8955 21.9951 48.8955C10.6981 48.8955 1.54297 43.1329 1.54297 36.0229H42.4472Z" fill="#EDF3F6"/>
<path d="M42.1707 38.134C42.3506 37.4449 42.4472 36.7427 42.4472 36.0229H1.54297C1.54297 36.7427 1.63952 37.4493 1.81947 38.134H42.1751H42.1707Z" fill="url(#paint0_linear_16325_29216)"/>
<path d="M18.1129 18.0384C18.1129 16.0912 16.8621 14.5127 15.3128 14.5127C13.7635 14.5127 12.5127 16.0912 12.5127 18.0384C12.5127 19.9856 13.7635 21.5641 15.3128 21.5641C16.8621 21.5641 18.1129 19.9856 18.1129 18.0384Z" fill="url(#paint1_linear_16325_29216)"/>
<path d="M32.8502 18.0384C32.8502 16.0912 31.5994 14.5127 30.0501 14.5127C28.5008 14.5127 27.25 16.0912 27.25 18.0384C27.25 19.9856 28.5008 21.5641 30.0501 21.5641C31.5994 21.5641 32.8502 19.9856 32.8502 18.0384Z" fill="url(#paint2_linear_16325_29216)"/>
<path d="M13.4502 47.7151C16.0528 48.4699 18.9451 48.8913 21.9953 48.8913C25.0456 48.8913 27.9378 48.4655 30.5404 47.7151C29.1974 44.7087 25.8795 42.5801 21.9953 42.5801C18.1112 42.5801 14.7976 44.7087 13.4502 47.7151Z" fill="url(#paint3_linear_16325_29216)"/>
<path d="M25.4298 25.6322C24.5093 25.3483 23.4845 25.1834 22.4016 25.1696C21.3187 25.1558 20.29 25.2962 19.3626 25.555C19.8256 26.6449 20.9937 27.4272 22.3726 27.4448C23.7515 27.4623 24.9377 26.7099 25.4298 25.6322Z" fill="#66A7E3"/>
<rect x="40.5762" y="15.271" width="3.03387" height="9.1016" rx="1.51693" fill="#B5BBBE"/>
<rect x="0.376953" y="15.271" width="3.03387" height="9.1016" rx="1.51693" fill="#B5BBBE"/>
<rect x="4.89062" y="3.0459" width="1.51693" height="7.0777" rx="0.758466" transform="rotate(-39.2028 4.89062 3.0459)" fill="#B5BBBE"/>
<rect x="37.3301" y="3.04395" width="1.51693" height="6.5291" rx="0.758466" transform="rotate(41.6466 37.3301 3.04395)" fill="#B5BBBE"/>
<rect x="11.6924" y="5.41064" width="2.15965" height="5.47611" rx="1.07983" transform="rotate(55.0632 11.6924 5.41064)" fill="#C0BDDF"/>
<rect x="37.1133" y="8.79688" width="2.15965" height="5.47611" rx="1.07983" transform="rotate(128.193 37.1133 8.79688)" fill="#C0BDDF"/>
<circle cx="5.3073" cy="1.99773" r="1.89617" fill="#45ADE2"/>
<circle cx="38.6794" cy="2.75603" r="1.89617" fill="#45ADE2"/>
<defs>
<linearGradient id="paint0_linear_16325_29216" x1="1.54297" y1="37.0763" x2="42.4472" y2="37.0763" gradientUnits="userSpaceOnUse">
<stop stop-color="#202E5B"/>
<stop offset="1" stop-color="#132144"/>
</linearGradient>
<linearGradient id="paint1_linear_16325_29216" x1="12.1616" y1="15.4648" x2="17.301" y2="21.7709" gradientUnits="userSpaceOnUse">
<stop stop-color="#81BBEF"/>
<stop offset="1" stop-color="#569BDB"/>
</linearGradient>
<linearGradient id="paint2_linear_16325_29216" x1="26.8989" y1="15.4648" x2="32.0426" y2="21.7717" gradientUnits="userSpaceOnUse">
<stop stop-color="#81BBEF"/>
<stop offset="1" stop-color="#569BDB"/>
</linearGradient>
<linearGradient id="paint3_linear_16325_29216" x1="13.4502" y1="45.7357" x2="30.536" y2="45.7357" gradientUnits="userSpaceOnUse">
<stop stop-color="#202E5B"/>
<stop offset="1" stop-color="#132144"/>
</linearGradient>
</defs>
</svg>
