<?xml version="1.0" encoding="utf-8"?>
<!-- Generator: Adobe Illustrator 24.0.1, SVG Export Plug-In . SVG Version: 6.00 Build 0)  -->
<svg version="1.1" id="Layer_1" xmlns="http://www.w3.org/2000/svg" xmlns:xlink="http://www.w3.org/1999/xlink" x="0px" y="0px"
	 viewBox="0 0 40 40" style="enable-background:new 0 0 40 40;" xml:space="preserve">
<style type="text/css">
	.st0{fill:#20419E;}
	.st1{fill:#A0A1A3;}
	.st2{fill:#FFFFFF;}
	.st3{fill:#F30602;}
</style>
<g>
	<path class="st0" d="M35.1,0H5C2.3,0,0.1,2.2,0.1,4.9v30.1C0.1,37.8,2.3,40,5,40h30c2.7,0,4.9-2.2,4.9-4.9V4.9
		C40,2.2,37.8,0,35.1,0z"/>
	<path class="st1" d="M8.8,0C8.7,0,8.6,0,8.5,0H4.9C2.2,0,0,2.2,0,4.9v30.1C0,37.8,2.2,40,4.9,40h1.5v0h7V0H8.8L8.8,0z"/>
	<path class="st2" d="M10.7,32.9V7.5H20c1.9,0,3.4,0.2,4.3,0.7c0.9,0.5,1.7,1.3,2.3,2.4c0.6,1.1,0.9,2.4,0.9,3.8
		c0,1.9-0.5,3.5-1.5,4.7c-1,1.2-2.5,2-4.4,2.3c0.8,0.5,1.4,0.9,1.8,1.4c0.8,1,1.5,2.1,2.2,3.3l3.6,6.9h-3.5l-2.8-5.3
		c-1.1-2.1-1.9-3.5-2.4-4.2c-0.5-0.7-1.1-1.2-1.6-1.5c-0.5-0.2-1.2-0.4-2.2-0.4h-3.2v11.3H10.7L10.7,32.9z M13.5,18.7h5.9
		c1.3,0,2.3-0.2,2.9-0.5c0.7-0.3,1.2-0.8,1.6-1.5c0.4-0.7,0.6-1.5,0.6-2.3c0-1.3-0.4-2.3-1.1-3c-0.8-0.7-1.9-1.1-3.3-1.1h-6.6
		L13.5,18.7L13.5,18.7z"/>
	<path class="st3" d="M9.6,20.1l4,2.3v-4.6L9.6,20.1z"/>
</g>
</svg>
