<svg width="148" height="46" viewBox="0 0 148 46" fill="none" xmlns="http://www.w3.org/2000/svg">
<g clip-path="url(#clip0_6614_22859)">
<path d="M40.3361 0H5.80046C2.68237 0 0.154663 2.53646 0.154663 5.66534V40.3206C0.154663 43.4494 2.68237 45.9859 5.80046 45.9859H40.3361C43.4542 45.9859 45.9819 43.4494 45.9819 40.3206V5.66534C45.9819 2.53646 43.4542 0 40.3361 0Z" fill="#20419E"/>
<path d="M10.0647 0.0141104C9.96979 0.0105828 9.87487 0 9.77644 0H5.6458C2.5276 0 0 2.53635 0 5.66534V40.3206C0 43.4495 2.5276 45.9859 5.6458 45.9859H7.42109V46.0035H15.4398V0.0141104H10.0682H10.0647Z" fill="#A0A1A3"/>
<path d="M12.3251 37.8902V8.57227H22.9487C25.167 8.57227 26.8052 8.84742 27.8598 9.39067C28.9144 9.93745 29.7827 10.8476 30.4612 12.1175C31.1397 13.3874 31.4772 14.8655 31.4772 16.5447C31.4772 18.7565 30.9007 20.5485 29.7546 21.9207C28.6051 23.293 26.9352 24.1643 24.7416 24.5382C25.631 25.0744 26.3095 25.6177 26.7735 26.168C27.7157 27.2862 28.5488 28.535 29.266 29.9072L33.4529 37.8867H29.4664L26.2708 31.791C25.0334 29.4063 24.0983 27.8013 23.469 26.9723C22.8398 26.1433 22.2281 25.5859 21.6375 25.3002C21.0469 25.0144 20.2208 24.8698 19.1591 24.8698H15.496V37.8902H12.3286H12.3251ZM15.4925 21.5115H22.3089C23.796 21.5115 24.9279 21.3316 25.6978 20.9718C26.4677 20.612 27.0794 20.044 27.5329 19.2715C27.9864 18.499 28.2113 17.5994 28.2113 16.5729C28.2113 15.0913 27.7789 13.9307 26.9177 13.0841C26.0529 12.2374 24.7732 11.8141 23.0718 11.8141H15.4995V21.5151L15.4925 21.5115Z" fill="white"/>
<path d="M11.0173 23.1627L15.5804 25.8084V20.5205L11.0173 23.1627Z" fill="#F30602"/>
<path d="M62.6978 34.5851L58.5883 28.4259H55.2732V34.5851H51.0547V15.335H59.8257C64.3466 15.335 67.0605 17.7267 67.0605 21.6882V21.7446C67.0605 24.8524 65.3907 26.8032 62.9509 27.7133L67.637 34.5886H62.7049L62.6978 34.5851ZM62.7787 21.9069C62.7787 20.0902 61.5166 19.1554 59.4636 19.1554H55.2697V24.6831H59.5445C61.601 24.6831 62.7787 23.5825 62.7787 21.9598V21.9034V21.9069Z" fill="#20419E"/>
<path d="M70.8677 34.5851V15.335H85.3372V19.1024H75.0616V23.0075H84.1068V26.775H75.0616V30.8176H85.4743V34.5851H70.8677Z" fill="#20419E"/>
<path d="M98.4638 34.9167C92.4876 34.9167 88.3781 30.7082 88.3781 25.0182V24.9617C88.3781 19.4904 92.6247 15.0068 98.4357 15.0068C101.888 15.0068 103.973 15.9417 105.973 17.6455L103.315 20.8627C101.835 19.6245 100.52 18.9084 98.2986 18.9084C95.2296 18.9084 92.7899 21.6317 92.7899 24.9018V24.9582C92.7899 28.4788 95.2015 31.0645 98.601 31.0645C100.137 31.0645 101.505 30.68 102.573 29.911V27.1594H98.3268V23.5013H106.658V31.8617C104.686 33.5374 101.972 34.9131 98.4638 34.9131V34.9167Z" fill="#20419E"/>
<path d="M110.715 34.5851V15.335H114.934V30.7365H124.499V34.5851H110.715Z" fill="#20419E"/>
<path d="M141.96 34.585L140.206 30.2672H132.093L130.338 34.585H126.036L134.258 15.1973H138.15L146.372 34.585H141.96ZM136.149 20.2841L133.601 26.5279H138.698L136.149 20.2841Z" fill="#20419E"/>
<path d="M53.5718 41.6325L52.8301 40.5178H52.2325V41.6325H51.4696V38.1543H53.0551C53.8706 38.1543 54.3628 38.5847 54.3628 39.3008V39.3114C54.3628 39.8722 54.0605 40.225 53.6211 40.3908L54.4683 41.6325H53.5753H53.5718ZM53.5859 39.3431C53.5859 39.015 53.3574 38.8457 52.9883 38.8457H52.2325V39.844H53.0058C53.3785 39.844 53.5894 39.6465 53.5894 39.3537V39.3431H53.5859Z" fill="#A0A1A3"/>
<path d="M57.3826 40.5634H55.537C55.6108 40.9056 55.8499 41.0855 56.1839 41.0855C56.437 41.0855 56.6198 41.0044 56.8272 40.8103L57.2596 41.1913C57.0135 41.4982 56.6549 41.6887 56.1768 41.6887C55.3788 41.6887 54.7917 41.1278 54.7917 40.3129V40.3024C54.7917 39.5439 55.3331 38.916 56.103 38.916C56.9889 38.916 57.3967 39.6074 57.3967 40.3623V40.3729C57.3967 40.447 57.3932 40.4929 57.3861 40.5634H57.3826ZM56.0995 39.5263C55.7866 39.5263 55.5862 39.7485 55.5265 40.0942H56.662C56.6163 39.7556 56.4194 39.5263 56.103 39.5263H56.0995Z" fill="#A0A1A3"/>
<path d="M59.1403 42.4366C58.7079 42.4366 58.3036 42.3378 57.9661 42.1579L58.2228 41.5899C58.4934 41.7452 58.7676 41.8333 59.1192 41.8333C59.6324 41.8333 59.8785 41.5864 59.8785 41.1102V40.9797C59.6571 41.2478 59.4145 41.41 59.0137 41.41C58.395 41.41 57.8361 40.9585 57.8361 40.1683V40.1577C57.8361 39.364 58.4056 38.916 59.0137 38.916C59.425 38.916 59.6676 39.0889 59.8715 39.3111V38.9654H60.6238V41.0255C60.6238 42.0309 60.1281 42.433 59.1438 42.433L59.1403 42.4366ZM59.8785 40.1613C59.8785 39.7979 59.5973 39.5439 59.2282 39.5439C58.859 39.5439 58.5848 39.7979 58.5848 40.1613V40.1718C58.5848 40.5387 58.8626 40.7892 59.2282 40.7892C59.5938 40.7892 59.8785 40.5352 59.8785 40.1718V40.1613Z" fill="#A0A1A3"/>
<path d="M62.9546 41.6321V41.2546C62.7823 41.4769 62.5573 41.6815 62.1777 41.6815C61.6082 41.6815 61.2777 41.304 61.2777 40.6937V38.9688H62.03V40.4539C62.03 40.8102 62.1988 40.9971 62.487 40.9971C62.7753 40.9971 62.9581 40.8137 62.9581 40.4539V38.9688H63.7104V41.6321H62.9581H62.9546Z" fill="#A0A1A3"/>
<path d="M64.4135 41.6322V38.0059H65.1658V41.6322H64.4135Z" fill="#A0A1A3"/>
<path d="M67.4297 41.632V41.3427C67.2469 41.5473 66.9938 41.6814 66.6281 41.6814C66.129 41.6814 65.7177 41.3921 65.7177 40.8665V40.8559C65.7177 40.2739 66.1571 40.0058 66.7863 40.0058C67.0535 40.0058 67.2469 40.0516 67.4332 40.1151V40.0728C67.4332 39.7588 67.2398 39.586 66.8637 39.586C66.5754 39.586 66.375 39.6389 66.1325 39.7306L65.9426 39.1556C66.2344 39.0251 66.5227 38.9404 66.9727 38.9404C67.7953 38.9404 68.1574 39.3673 68.1574 40.0869V41.632H67.4297ZM67.4437 40.5596C67.3137 40.4996 67.1449 40.4608 66.9621 40.4608C66.6387 40.4608 66.4418 40.5913 66.4418 40.8277V40.8383C66.4418 41.0429 66.6106 41.1628 66.8531 41.1628C67.2047 41.1628 67.4437 40.9688 67.4437 40.6972V40.5631V40.5596Z" fill="#A0A1A3"/>
<path d="M69.6761 41.6781C69.2156 41.6781 68.9027 41.4947 68.9027 40.8773V39.6145H68.5863V38.9689H68.9027V38.2881H69.655V38.9689H70.2772V39.6145H69.655V40.7504C69.655 40.9232 69.7288 41.0079 69.8976 41.0079C70.0347 41.0079 70.1612 40.9726 70.2702 40.9126V41.5194C70.112 41.6146 69.9292 41.6746 69.6761 41.6746V41.6781Z" fill="#A0A1A3"/>
<path d="M72.0631 41.6926C71.2405 41.6926 70.6323 41.0823 70.6323 40.3169V40.3063C70.6323 39.5408 71.2475 38.9199 72.0737 38.9199C72.8998 38.9199 73.5044 39.5302 73.5044 40.2957V40.3063C73.5044 41.0718 72.8892 41.6926 72.0631 41.6926ZM72.7627 40.3063C72.7627 39.9147 72.4814 39.5725 72.0631 39.5725C71.6448 39.5725 71.3741 39.9041 71.3741 40.2992V40.3098C71.3741 40.7014 71.6553 41.0471 72.0737 41.0471C72.492 41.0471 72.7627 40.7155 72.7627 40.3204V40.3098V40.3063Z" fill="#A0A1A3"/>
<path d="M75.6066 39.7094C75.1074 39.7094 74.7981 40.0128 74.7981 40.6478V41.632H74.0458V38.9687H74.7981V39.5048C74.9528 39.138 75.1988 38.8981 75.6453 38.9193V39.7094H75.6066Z" fill="#A0A1A3"/>
<path d="M77.621 41.6956C77.4171 42.2388 77.1991 42.4399 76.7492 42.4399C76.4785 42.4399 76.2746 42.3694 76.0812 42.2565L76.3343 41.7097C76.4328 41.7697 76.5558 41.8155 76.6578 41.8155C76.7878 41.8155 76.8546 41.7767 76.9214 41.6427L75.8809 38.9688H76.6789L77.2835 40.7819L77.8636 38.9688H78.6475L77.628 41.6956H77.621Z" fill="#A0A1A3"/>
<path d="M82.2754 41.6919C81.2559 41.6919 80.4966 40.9017 80.4966 39.9034V39.8928C80.4966 38.9051 81.2383 38.0938 82.3035 38.0938C82.9574 38.0938 83.3476 38.3125 83.671 38.6299L83.1859 39.1908C82.9187 38.9474 82.6445 38.7993 82.3 38.7993C81.7164 38.7993 81.2946 39.2861 81.2946 39.8822V39.8928C81.2946 40.489 81.7059 40.9864 82.3 40.9864C82.6972 40.9864 82.9398 40.8276 83.2105 40.5807L83.6956 41.0711C83.3406 41.452 82.9433 41.6919 82.2754 41.6919Z" fill="#A0A1A3"/>
<path d="M85.478 41.6926C84.6554 41.6926 84.0472 41.0823 84.0472 40.3169V40.3063C84.0472 39.5408 84.6624 38.9199 85.4886 38.9199C86.3147 38.9199 86.9194 39.5302 86.9194 40.2957V40.3063C86.9194 41.0718 86.3042 41.6926 85.478 41.6926ZM86.1776 40.3063C86.1776 39.9147 85.8964 39.5725 85.478 39.5725C85.0597 39.5725 84.789 39.9041 84.789 40.2992V40.3098C84.789 40.7014 85.0702 41.0471 85.4886 41.0471C85.9069 41.0471 86.1776 40.7155 86.1776 40.3204V40.3098V40.3063Z" fill="#A0A1A3"/>
<path d="M90.7617 41.6327V40.1475C90.7617 39.7877 90.6035 39.6043 90.3223 39.6043C90.041 39.6043 89.8653 39.7877 89.8653 40.1475V41.6327H89.113V40.1475C89.113 39.7877 88.9548 39.6043 88.6735 39.6043C88.3923 39.6043 88.2165 39.7877 88.2165 40.1475V41.6327H87.4642V38.9693H88.2165V39.3468C88.3888 39.1245 88.6173 38.9199 89.0005 38.9199C89.3485 38.9199 89.6087 39.0751 89.7493 39.3432C89.9813 39.0681 90.259 38.9199 90.6211 38.9199C91.1801 38.9199 91.5175 39.2586 91.5175 39.8971V41.6327H90.7652H90.7617Z" fill="#A0A1A3"/>
<path d="M93.7463 41.682C93.3455 41.682 93.0959 41.4986 92.9202 41.2834V42.4264H92.1678V38.9693H92.9202V39.3503C93.103 39.0998 93.3561 38.9199 93.7463 38.9199C94.365 38.9199 94.9556 39.4067 94.9556 40.2957V40.3063C94.9556 41.1952 94.3756 41.682 93.7463 41.682ZM94.2033 40.2957C94.2033 39.8547 93.908 39.5619 93.5564 39.5619C93.2049 39.5619 92.9131 39.8547 92.9131 40.2957V40.3063C92.9131 40.7472 93.2049 41.0435 93.5564 41.0435C93.908 41.0435 94.2033 40.7543 94.2033 40.3063V40.2957Z" fill="#A0A1A3"/>
<path d="M95.5427 41.6322V38.0059H96.295V41.6322H95.5427Z" fill="#A0A1A3"/>
<path d="M97.0192 38.6761V38.0059H97.8101V38.6761H97.0192ZM97.0403 41.6322V38.9689H97.7926V41.6322H97.0403Z" fill="#A0A1A3"/>
<path d="M100.053 41.632V41.3427C99.8702 41.5473 99.617 41.6814 99.2514 41.6814C98.7522 41.6814 98.3409 41.3921 98.3409 40.8665V40.8559C98.3409 40.2739 98.7804 40.0058 99.4096 40.0058C99.6768 40.0058 99.8702 40.0516 100.056 40.1151V40.0728C100.056 39.7588 99.8631 39.586 99.487 39.586C99.1987 39.586 98.9983 39.6389 98.7558 39.7306L98.5659 39.1556C98.8577 39.0251 99.146 38.9404 99.596 38.9404C100.419 38.9404 100.781 39.3673 100.781 40.0869V41.632H100.053ZM100.067 40.5596C99.937 40.4996 99.7682 40.4608 99.5854 40.4608C99.262 40.4608 99.0651 40.5913 99.0651 40.8277V40.8383C99.0651 41.0429 99.2339 41.1628 99.4764 41.1628C99.828 41.1628 100.067 40.9688 100.067 40.6972V40.5631V40.5596Z" fill="#A0A1A3"/>
<path d="M103.108 41.6327V40.1475C103.108 39.7877 102.939 39.6043 102.651 39.6043C102.363 39.6043 102.18 39.7877 102.18 40.1475V41.6327H101.427V38.9693H102.18V39.3468C102.352 39.1245 102.577 38.9199 102.957 38.9199C103.526 38.9199 103.857 39.2974 103.857 39.9077V41.6327H103.104H103.108Z" fill="#A0A1A3"/>
<path d="M105.766 41.6926C104.968 41.6926 104.384 41.0753 104.384 40.3169V40.3063C104.384 39.5478 104.964 38.9199 105.776 38.9199C106.275 38.9199 106.588 39.0892 106.834 39.3679L106.374 39.8653C106.205 39.6854 106.036 39.5725 105.769 39.5725C105.393 39.5725 105.126 39.9041 105.126 40.2992V40.3098C105.126 40.719 105.389 41.0471 105.801 41.0471C106.054 41.0471 106.226 40.9377 106.409 40.7649L106.848 41.2129C106.592 41.4951 106.293 41.6997 105.766 41.6997V41.6926Z" fill="#A0A1A3"/>
<path d="M109.731 40.5634H107.885C107.959 40.9056 108.198 41.0855 108.532 41.0855C108.785 41.0855 108.968 41.0044 109.176 40.8103L109.608 41.1913C109.362 41.4982 109.003 41.6887 108.525 41.6887C107.727 41.6887 107.14 41.1278 107.14 40.3129V40.3024C107.14 39.5439 107.682 38.916 108.451 38.916C109.337 38.916 109.745 39.6074 109.745 40.3623V40.3729C109.745 40.447 109.742 40.4929 109.735 40.5634H109.731ZM108.448 39.5263C108.135 39.5263 107.935 39.7485 107.875 40.0942H109.01C108.965 39.7556 108.768 39.5263 108.451 39.5263H108.448Z" fill="#A0A1A3"/>
<path d="M113.099 41.6815C112.575 41.6815 112.044 41.4981 111.629 41.1241L112.079 40.5809C112.392 40.8384 112.719 41.0042 113.113 41.0042C113.426 41.0042 113.612 40.8807 113.612 40.6761V40.6655C113.612 40.4715 113.492 40.3727 112.912 40.2246C112.213 40.0447 111.763 39.8507 111.763 39.1628V39.1522C111.763 38.5208 112.269 38.1045 112.976 38.1045C113.482 38.1045 113.911 38.2632 114.262 38.5454L113.865 39.1204C113.559 38.9053 113.257 38.7783 112.965 38.7783C112.673 38.7783 112.519 38.9123 112.519 39.0816V39.0922C112.519 39.3215 112.666 39.3956 113.267 39.5473C113.971 39.7307 114.368 39.9847 114.368 40.5915V40.602C114.368 41.2934 113.844 41.6815 113.095 41.6815H113.099Z" fill="#A0A1A3"/>
<path d="M116.256 41.6926C115.433 41.6926 114.825 41.0823 114.825 40.3169V40.3063C114.825 39.5408 115.44 38.9199 116.266 38.9199C117.092 38.9199 117.697 39.5302 117.697 40.2957V40.3063C117.697 41.0718 117.082 41.6926 116.256 41.6926ZM116.955 40.3063C116.955 39.9147 116.674 39.5725 116.256 39.5725C115.837 39.5725 115.567 39.9041 115.567 40.2992V40.3098C115.567 40.7014 115.848 41.0471 116.266 41.0471C116.684 41.0471 116.955 40.7155 116.955 40.3204V40.3098V40.3063Z" fill="#A0A1A3"/>
<path d="M119.384 38.6057C119.212 38.6057 119.114 38.6939 119.114 38.8949V38.9972H119.722V39.6146H119.124V41.6324H118.372V39.6146H118.059V38.9937H118.372V38.8244C118.372 38.2388 118.664 37.9707 119.195 37.9707C119.434 37.9707 119.592 38.0025 119.729 38.0448V38.6727C119.62 38.6339 119.514 38.6092 119.388 38.6092L119.384 38.6057Z" fill="#A0A1A3"/>
<path d="M121.03 41.6781C120.569 41.6781 120.256 41.4947 120.256 40.8773V39.6145H119.94V38.9689H120.256V38.2881H121.009V38.9689H121.631V39.6145H121.009V40.7504C121.009 40.9232 121.082 41.0079 121.251 41.0079C121.388 41.0079 121.515 40.9726 121.624 40.9126V41.5194C121.466 41.6146 121.283 41.6746 121.03 41.6746V41.6781Z" fill="#A0A1A3"/>
<path d="M125.167 41.6531H124.489L123.979 40.0198L123.459 41.6531H122.784L121.968 38.9686H122.731L123.156 40.5842L123.656 38.958H124.303L124.809 40.5878L125.245 38.9686H125.993L125.167 41.6531Z" fill="#A0A1A3"/>
<path d="M127.906 41.632V41.3427C127.723 41.5473 127.47 41.6814 127.104 41.6814C126.605 41.6814 126.194 41.3921 126.194 40.8665V40.8559C126.194 40.2739 126.633 40.0058 127.263 40.0058C127.53 40.0058 127.723 40.0516 127.909 40.1151V40.0728C127.909 39.7588 127.716 39.586 127.34 39.586C127.052 39.586 126.851 39.6389 126.609 39.7306L126.419 39.1556C126.711 39.0251 126.999 38.9404 127.449 38.9404C128.271 38.9404 128.634 39.3673 128.634 40.0869V41.632H127.906ZM127.92 40.5596C127.79 40.4996 127.621 40.4608 127.438 40.4608C127.115 40.4608 126.918 40.5913 126.918 40.8277V40.8383C126.918 41.0429 127.087 41.1628 127.329 41.1628C127.681 41.1628 127.92 40.9688 127.92 40.6972V40.5631V40.5596Z" fill="#A0A1A3"/>
<path d="M130.841 39.7094C130.342 39.7094 130.033 40.0128 130.033 40.6478V41.632H129.28V38.9687H130.033V39.5048C130.187 39.138 130.433 38.8981 130.88 38.9193V39.7094H130.841Z" fill="#A0A1A3"/>
<path d="M133.741 40.5634H131.896C131.97 40.9056 132.209 41.0855 132.543 41.0855C132.796 41.0855 132.979 41.0044 133.186 40.8103L133.618 41.1913C133.372 41.4982 133.014 41.6887 132.536 41.6887C131.738 41.6887 131.151 41.1278 131.151 40.3129V40.3024C131.151 39.5439 131.692 38.916 132.462 38.916C133.348 38.916 133.755 39.6074 133.755 40.3623V40.3729C133.755 40.447 133.752 40.4929 133.745 40.5634H133.741ZM132.458 39.5263C132.145 39.5263 131.945 39.7485 131.885 40.0942H133.021C132.975 39.7556 132.778 39.5263 132.462 39.5263H132.458Z" fill="#A0A1A3"/>
<path d="M137.109 41.6815C136.585 41.6815 136.055 41.4981 135.64 41.1241L136.09 40.5809C136.403 40.8384 136.73 41.0042 137.123 41.0042C137.436 41.0042 137.622 40.8807 137.622 40.6761V40.6655C137.622 40.4715 137.503 40.3727 136.923 40.2246C136.223 40.0447 135.773 39.8507 135.773 39.1628V39.1522C135.773 38.5208 136.28 38.1045 136.986 38.1045C137.492 38.1045 137.921 38.2632 138.273 38.5454L137.876 39.1204C137.57 38.9053 137.267 38.7783 136.976 38.7783C136.684 38.7783 136.529 38.9123 136.529 39.0816V39.0922C136.529 39.3215 136.677 39.3956 137.278 39.5473C137.981 39.7307 138.378 39.9847 138.378 40.5915V40.602C138.378 41.2934 137.855 41.6815 137.106 41.6815H137.109Z" fill="#A0A1A3"/>
<path d="M140.625 41.6321V41.2546C140.452 41.4769 140.227 41.6815 139.848 41.6815C139.278 41.6815 138.948 41.304 138.948 40.6937V38.9688H139.7V40.4539C139.7 40.8102 139.869 40.9971 140.157 40.9971C140.445 40.9971 140.628 40.8137 140.628 40.4539V38.9688H141.38V41.6321H140.628H140.625Z" fill="#A0A1A3"/>
<path d="M142.062 38.6761V38.0059H142.853V38.6761H142.062ZM142.084 41.6322V38.9689H142.836V41.6322H142.084Z" fill="#A0A1A3"/>
<path d="M144.439 41.6781C143.978 41.6781 143.666 41.4947 143.666 40.8773V39.6145H143.349V38.9689H143.666V38.2881H144.418V38.9689H145.04V39.6145H144.418V40.7504C144.418 40.9232 144.492 41.0079 144.66 41.0079C144.797 41.0079 144.924 40.9726 145.033 40.9126V41.5194C144.875 41.6146 144.692 41.6746 144.439 41.6746V41.6781Z" fill="#A0A1A3"/>
<path d="M147.99 40.5634H146.144C146.218 40.9056 146.457 41.0855 146.791 41.0855C147.044 41.0855 147.227 41.0044 147.434 40.8103L147.867 41.1913C147.62 41.4982 147.262 41.6887 146.784 41.6887C145.986 41.6887 145.399 41.1278 145.399 40.3129V40.3024C145.399 39.5439 145.94 38.916 146.71 38.916C147.596 38.916 148.004 39.6074 148.004 40.3623V40.3729C148.004 40.447 148 40.4929 147.993 40.5634H147.99ZM146.706 39.5263C146.394 39.5263 146.193 39.7485 146.133 40.0942H147.269C147.223 39.7556 147.026 39.5263 146.71 39.5263H146.706Z" fill="#A0A1A3"/>
</g>
<defs>
<clipPath id="clip0_6614_22859">
<rect width="148" height="46" fill="white"/>
</clipPath>
</defs>
</svg>
