<svg width="23" height="21" viewBox="0 0 23 21" fill="none" xmlns="http://www.w3.org/2000/svg">
<g clip-path="url(#clip0_1413_5660)">
<path d="M20.7788 7.60006C22.0055 7.60006 23 6.59801 23 5.36192C23 4.12583 22.0055 3.12378 20.7788 3.12378C19.5521 3.12378 18.5576 4.12583 18.5576 5.36192C18.5576 6.59801 19.5521 7.60006 20.7788 7.60006Z" fill="#20419E"/>
<path d="M11.0709 0.981608L0.444011 16.4287C-0.269896 17.4664 -0.0137656 18.8908 1.0161 19.6101L1.02002 19.6129C2.04988 20.3322 3.46348 20.0741 4.17739 19.0364L14.8043 3.58937C15.5182 2.55165 15.2621 1.12725 14.2322 0.407898L14.2283 0.405156C13.1984 -0.314201 11.7848 -0.056115 11.0709 0.981608Z" fill="#20419E"/>
<path d="M2.22118 8.99605C3.44791 8.99605 4.44237 7.994 4.44237 6.75791C4.44237 5.52182 3.44791 4.51978 2.22118 4.51978C0.994458 4.51978 0 5.52182 0 6.75791C0 7.994 0.994458 8.99605 2.22118 8.99605Z" fill="#20419E"/>
<path d="M15.9671 9.18639L10.3883 17.2956C9.67444 18.3333 9.93057 19.7577 10.9604 20.4771L11.1253 20.5922C12.1552 21.3116 13.5688 21.0535 14.2827 20.0158L19.8615 11.9066C20.5754 10.8689 20.3192 9.44447 19.2894 8.72511L19.1245 8.60994C18.0946 7.89058 16.681 8.14867 15.9671 9.18639Z" fill="#20419E"/>
</g>
<defs>
<clipPath id="clip0_1413_5660">
<rect width="23" height="21" fill="white"/>
</clipPath>
</defs>
</svg>
