<?xml version="1.0" encoding="utf-8"?>
<!-- Generator: Adobe Illustrator 24.0.1, SVG Export Plug-In . SVG Version: 6.00 Build 0)  -->
<svg version="1.1" id="Layer_1" xmlns="http://www.w3.org/2000/svg" xmlns:xlink="http://www.w3.org/1999/xlink" x="0px" y="0px"
	 viewBox="0 0 120 40" style="enable-background:new 0 0 120 40;" xml:space="preserve">
<style type="text/css">
	.st0{fill:#20419E;}
	.st1{fill:#A0A1A3;}
</style>
<g>
	<path class="st0" d="M14.4,27.3l-5.1-7.6H5.2v7.6H0V3.4h10.9c5.6,0,9,3,9,7.9v0.1c0,3.8-2.1,6.3-5.1,7.4l5.8,8.5L14.4,27.3
		L14.4,27.3z M14.5,11.6c0-2.2-1.6-3.4-4.1-3.4H5.2V15h5.3C13.1,15,14.5,13.6,14.5,11.6L14.5,11.6L14.5,11.6z"/>
	<path class="st0" d="M24.5,27.3V3.4h17.9v4.7H29.7v4.8h11.2v4.7H29.7v5h12.9v4.7H24.5z"/>
	<path class="st0" d="M58.7,27.7c-7.4,0-12.5-5.2-12.5-12.3v-0.1C46.2,8.6,51.5,3,58.6,3c4.3,0,6.9,1.2,9.3,3.3l-3.3,4
		c-1.8-1.5-3.5-2.4-6.2-2.4c-3.8,0-6.8,3.4-6.8,7.4v0.1c0,4.4,3,7.6,7.2,7.6c1.9,0,3.6-0.5,4.9-1.4v-3.4h-5.3v-4.5h10.3v10.3
		C66.4,26,63,27.7,58.7,27.7L58.7,27.7z"/>
	<path class="st0" d="M73.8,27.3V3.4h5.2v19.1h11.8v4.8H73.8z"/>
	<path class="st0" d="M112.5,27.3l-2.2-5.3h-10l-2.2,5.3h-5.3l10.2-24h4.8l10.2,24H112.5z M105.3,9.6l-3.2,7.7h6.3L105.3,9.6z"/>
	<path class="st1" d="M3.1,36l-0.9-1.4H1.5V36H0.5v-4.3h2c1,0,1.6,0.5,1.6,1.4v0c0,0.7-0.4,1.1-0.9,1.3l1,1.5H3.1L3.1,36z M3.1,33.1
		c0-0.4-0.3-0.6-0.7-0.6H1.5v1.2h1C2.9,33.8,3.1,33.5,3.1,33.1L3.1,33.1L3.1,33.1z"/>
	<path class="st1" d="M7.8,34.7H5.5c0.1,0.4,0.4,0.6,0.8,0.6c0.3,0,0.5-0.1,0.8-0.3l0.5,0.5C7.4,35.8,6.9,36,6.3,36
		c-1,0-1.7-0.7-1.7-1.7v0c0-0.9,0.7-1.7,1.6-1.7c1.1,0,1.6,0.9,1.6,1.8v0C7.8,34.5,7.8,34.6,7.8,34.7L7.8,34.7z M6.2,33.4
		c-0.4,0-0.6,0.3-0.7,0.7h1.4C6.9,33.7,6.6,33.4,6.2,33.4L6.2,33.4z"/>
	<path class="st1" d="M10,37c-0.5,0-1-0.1-1.5-0.3l0.3-0.7c0.3,0.2,0.7,0.3,1.1,0.3c0.6,0,0.9-0.3,0.9-0.9v-0.2
		c-0.3,0.3-0.6,0.5-1.1,0.5c-0.8,0-1.5-0.6-1.5-1.5v0c0-1,0.7-1.5,1.5-1.5c0.5,0,0.8,0.2,1.1,0.5v-0.4h0.9v2.5
		C11.8,36.5,11.2,37,10,37L10,37z M10.9,34.2c0-0.4-0.3-0.8-0.8-0.8c-0.5,0-0.8,0.3-0.8,0.8v0c0,0.5,0.3,0.8,0.8,0.8
		S10.9,34.6,10.9,34.2L10.9,34.2z"/>
	<path class="st1" d="M14.7,36v-0.5c-0.2,0.3-0.5,0.5-1,0.5c-0.7,0-1.1-0.5-1.1-1.2v-2.1h0.9v1.8c0,0.4,0.2,0.7,0.6,0.7
		c0.4,0,0.6-0.2,0.6-0.7v-1.8h0.9V36H14.7L14.7,36z"/>
	<path class="st1" d="M16.5,36v-4.5h0.9V36H16.5z"/>
	<path class="st1" d="M20.3,36v-0.4c-0.2,0.3-0.5,0.4-1,0.4c-0.6,0-1.1-0.4-1.1-1v0c0-0.7,0.5-1.1,1.3-1.1c0.3,0,0.6,0.1,0.8,0.1V34
		c0-0.4-0.2-0.6-0.7-0.6c-0.4,0-0.6,0.1-0.9,0.2l-0.2-0.7c0.4-0.2,0.7-0.3,1.3-0.3c1,0,1.5,0.5,1.5,1.4V36H20.3z M20.3,34.7
		c-0.2-0.1-0.4-0.1-0.6-0.1c-0.4,0-0.6,0.2-0.6,0.5v0c0,0.3,0.2,0.4,0.5,0.4c0.4,0,0.7-0.2,0.7-0.6V34.7L20.3,34.7z"/>
	<path class="st1" d="M23,36c-0.6,0-1-0.2-1-1v-1.6h-0.4v-0.8h0.4v-0.8H23v0.8h0.8v0.8H23v1.4c0,0.2,0.1,0.3,0.3,0.3
		c0.2,0,0.3,0,0.5-0.1v0.8C23.6,36,23.4,36,23,36L23,36z"/>
	<path class="st1" d="M26,36.1c-1,0-1.8-0.8-1.8-1.7v0c0-0.9,0.8-1.7,1.8-1.7c1,0,1.8,0.8,1.8,1.7v0C27.8,35.3,27,36.1,26,36.1z
		 M26.9,34.3c0-0.5-0.3-0.9-0.9-0.9c-0.5,0-0.9,0.4-0.9,0.9v0c0,0.5,0.3,0.9,0.9,0.9C26.5,35.3,26.9,34.8,26.9,34.3L26.9,34.3
		L26.9,34.3z"/>
	<path class="st1" d="M30.4,33.6c-0.6,0-1,0.4-1,1.2V36h-0.9v-3.3h0.9v0.7c0.2-0.5,0.5-0.8,1-0.7L30.4,33.6L30.4,33.6z"/>
	<path class="st1" d="M32.9,36.1c-0.3,0.7-0.5,0.9-1.1,0.9c-0.3,0-0.6-0.1-0.8-0.2l0.3-0.7c0.1,0.1,0.3,0.1,0.4,0.1
		c0.2,0,0.2,0,0.3-0.2l-1.3-3.3h1l0.7,2.2l0.7-2.2h1L32.9,36.1L32.9,36.1z"/>
	<path class="st1" d="M38.6,36.1c-1.3,0-2.2-1-2.2-2.2v0c0-1.2,0.9-2.2,2.2-2.2c0.8,0,1.3,0.3,1.7,0.7L39.8,33
		c-0.3-0.3-0.7-0.5-1.1-0.5c-0.7,0-1.2,0.6-1.2,1.3v0c0,0.7,0.5,1.4,1.2,1.4c0.5,0,0.8-0.2,1.1-0.5l0.6,0.6
		C40,35.8,39.5,36.1,38.6,36.1z"/>
	<path class="st1" d="M42.6,36.1c-1,0-1.8-0.8-1.8-1.7v0c0-0.9,0.8-1.7,1.8-1.7c1,0,1.8,0.8,1.8,1.7v0
		C44.4,35.3,43.6,36.1,42.6,36.1z M43.5,34.3c0-0.5-0.3-0.9-0.9-0.9c-0.5,0-0.9,0.4-0.9,0.9v0c0,0.5,0.3,0.9,0.9,0.9
		C43.1,35.3,43.5,34.8,43.5,34.3L43.5,34.3L43.5,34.3z"/>
	<path class="st1" d="M49.1,36v-1.8c0-0.4-0.2-0.7-0.5-0.7c-0.3,0-0.6,0.2-0.6,0.7V36h-0.9v-1.8c0-0.4-0.2-0.7-0.5-0.7
		c-0.3,0-0.6,0.2-0.6,0.7V36h-0.9v-3.3H46v0.5c0.2-0.3,0.5-0.5,1-0.5c0.4,0,0.8,0.2,0.9,0.5c0.3-0.3,0.6-0.5,1.1-0.5
		c0.7,0,1.1,0.4,1.1,1.2V36H49.1L49.1,36z"/>
	<path class="st1" d="M52.8,36c-0.5,0-0.8-0.2-1-0.5V37h-0.9v-4.3h0.9v0.5c0.2-0.3,0.5-0.5,1-0.5c0.8,0,1.5,0.6,1.5,1.7v0
		C54.3,35.4,53.6,36,52.8,36z M53.4,34.3c0-0.5-0.4-0.9-0.8-0.9c-0.4,0-0.8,0.4-0.8,0.9v0c0,0.5,0.4,0.9,0.8,0.9
		C53,35.2,53.4,34.9,53.4,34.3L53.4,34.3z"/>
	<path class="st1" d="M55.1,36v-4.5H56V36H55.1z"/>
	<path class="st1" d="M56.9,32.3v-0.8h1v0.8H56.9z M56.9,36v-3.3h0.9V36H56.9z"/>
	<path class="st1" d="M60.6,36v-0.4c-0.2,0.3-0.5,0.4-1,0.4c-0.6,0-1.1-0.4-1.1-1v0c0-0.7,0.5-1.1,1.3-1.1c0.3,0,0.6,0.1,0.8,0.1V34
		c0-0.4-0.2-0.6-0.7-0.6c-0.4,0-0.6,0.1-0.9,0.2l-0.2-0.7c0.4-0.2,0.7-0.3,1.3-0.3c1,0,1.5,0.5,1.5,1.4V36H60.6z M60.7,34.7
		c-0.2-0.1-0.4-0.1-0.6-0.1c-0.4,0-0.6,0.2-0.6,0.5v0c0,0.3,0.2,0.4,0.5,0.4c0.4,0,0.7-0.2,0.7-0.6V34.7L60.7,34.7z"/>
	<path class="st1" d="M64.4,36v-1.8c0-0.4-0.2-0.7-0.6-0.7c-0.4,0-0.6,0.2-0.6,0.7V36h-0.9v-3.3h0.9v0.5c0.2-0.3,0.5-0.5,1-0.5
		c0.7,0,1.1,0.5,1.1,1.2V36H64.4L64.4,36z"/>
	<path class="st1" d="M67.7,36.1c-1,0-1.7-0.8-1.7-1.7v0c0-0.9,0.7-1.7,1.7-1.7c0.6,0,1,0.2,1.3,0.6l-0.6,0.6
		c-0.2-0.2-0.4-0.4-0.7-0.4c-0.5,0-0.8,0.4-0.8,0.9v0c0,0.5,0.3,0.9,0.8,0.9c0.3,0,0.5-0.1,0.8-0.3l0.5,0.6
		C68.7,35.8,68.4,36.1,67.7,36.1L67.7,36.1z"/>
	<path class="st1" d="M72.6,34.7h-2.3c0.1,0.4,0.4,0.6,0.8,0.6c0.3,0,0.5-0.1,0.8-0.3l0.5,0.5c-0.3,0.4-0.7,0.6-1.3,0.6
		c-1,0-1.7-0.7-1.7-1.7v0c0-0.9,0.7-1.7,1.6-1.7c1.1,0,1.6,0.9,1.6,1.8v0C72.6,34.5,72.6,34.6,72.6,34.7L72.6,34.7z M71,33.4
		c-0.4,0-0.6,0.3-0.7,0.7h1.4C71.7,33.7,71.4,33.4,71,33.4L71,33.4z"/>
	<path class="st1" d="M76.8,36c-0.6,0-1.3-0.2-1.8-0.7l0.6-0.7c0.4,0.3,0.8,0.5,1.3,0.5c0.4,0,0.6-0.2,0.6-0.4v0
		c0-0.2-0.1-0.4-0.9-0.5c-0.9-0.2-1.4-0.5-1.4-1.3v0c0-0.8,0.6-1.3,1.5-1.3c0.6,0,1.2,0.2,1.6,0.5l-0.5,0.7
		c-0.4-0.3-0.8-0.4-1.1-0.4c-0.4,0-0.6,0.2-0.6,0.4v0c0,0.3,0.2,0.4,0.9,0.6c0.9,0.2,1.4,0.5,1.4,1.3v0C78.4,35.6,77.7,36,76.8,36
		L76.8,36z"/>
	<path class="st1" d="M80.7,36.1c-1,0-1.8-0.8-1.8-1.7v0c0-0.9,0.8-1.7,1.8-1.7c1,0,1.8,0.8,1.8,1.7v0
		C82.5,35.3,81.7,36.1,80.7,36.1z M81.6,34.3c0-0.5-0.3-0.9-0.9-0.9c-0.5,0-0.9,0.4-0.9,0.9v0c0,0.5,0.3,0.9,0.9,0.9
		C81.2,35.3,81.6,34.8,81.6,34.3L81.6,34.3L81.6,34.3z"/>
	<path class="st1" d="M84.6,32.2c-0.2,0-0.3,0.1-0.3,0.4v0.1H85v0.8h-0.7V36h-0.9v-2.5h-0.4v-0.8h0.4v-0.2c0-0.7,0.4-1.1,1-1.1
		c0.3,0,0.5,0,0.7,0.1v0.8C84.9,32.3,84.7,32.2,84.6,32.2L84.6,32.2z"/>
	<path class="st1" d="M86.6,36c-0.6,0-1-0.2-1-1v-1.6h-0.4v-0.8h0.4v-0.8h0.9v0.8h0.8v0.8h-0.8v1.4c0,0.2,0.1,0.3,0.3,0.3
		c0.2,0,0.3,0,0.5-0.1v0.8C87.2,36,86.9,36,86.6,36L86.6,36z"/>
	<path class="st1" d="M91.7,36h-0.8l-0.6-2l-0.6,2h-0.8l-1-3.3h0.9l0.5,2l0.6-2h0.8l0.6,2l0.5-2h0.9L91.7,36z"/>
	<path class="st1" d="M95.1,36v-0.4c-0.2,0.3-0.5,0.4-1,0.4c-0.6,0-1.1-0.4-1.1-1v0c0-0.7,0.5-1.1,1.3-1.1c0.3,0,0.6,0.1,0.8,0.1V34
		c0-0.4-0.2-0.6-0.7-0.6c-0.4,0-0.6,0.1-0.9,0.2l-0.2-0.7c0.4-0.2,0.7-0.3,1.3-0.3c1,0,1.5,0.5,1.5,1.4V36H95.1z M95.1,34.7
		c-0.2-0.1-0.4-0.1-0.6-0.1c-0.4,0-0.6,0.2-0.6,0.5v0c0,0.3,0.2,0.4,0.5,0.4c0.4,0,0.7-0.2,0.7-0.6V34.7L95.1,34.7z"/>
	<path class="st1" d="M98.8,33.6c-0.6,0-1,0.4-1,1.2V36h-0.9v-3.3h0.9v0.7c0.2-0.5,0.5-0.8,1-0.7L98.8,33.6L98.8,33.6z"/>
	<path class="st1" d="M102.3,34.7h-2.3c0.1,0.4,0.4,0.6,0.8,0.6c0.3,0,0.5-0.1,0.8-0.3l0.5,0.5c-0.3,0.4-0.7,0.6-1.3,0.6
		c-1,0-1.7-0.7-1.7-1.7v0c0-0.9,0.7-1.7,1.6-1.7c1.1,0,1.6,0.9,1.6,1.8v0C102.4,34.5,102.4,34.6,102.3,34.7L102.3,34.7z M100.8,33.4
		c-0.4,0-0.6,0.3-0.7,0.7h1.4C101.4,33.7,101.2,33.4,100.8,33.4L100.8,33.4z"/>
	<path class="st1" d="M106.5,36c-0.6,0-1.3-0.2-1.8-0.7l0.6-0.7c0.4,0.3,0.8,0.5,1.3,0.5c0.4,0,0.6-0.2,0.6-0.4v0
		c0-0.2-0.1-0.4-0.9-0.5c-0.9-0.2-1.4-0.5-1.4-1.3v0c0-0.8,0.6-1.3,1.5-1.3c0.6,0,1.2,0.2,1.6,0.5l-0.5,0.7
		c-0.4-0.3-0.8-0.4-1.1-0.4c-0.4,0-0.6,0.2-0.6,0.4v0c0,0.3,0.2,0.4,0.9,0.6c0.9,0.2,1.4,0.5,1.4,1.3v0
		C108.1,35.6,107.4,36,106.5,36L106.5,36z"/>
	<path class="st1" d="M110.9,36v-0.5c-0.2,0.3-0.5,0.5-1,0.5c-0.7,0-1.1-0.5-1.1-1.2v-2.1h0.9v1.8c0,0.4,0.2,0.7,0.6,0.7
		c0.4,0,0.6-0.2,0.6-0.7v-1.8h0.9V36H110.9L110.9,36z"/>
	<path class="st1" d="M112.6,32.3v-0.8h1v0.8H112.6z M112.7,36v-3.3h0.9V36H112.7z"/>
	<path class="st1" d="M115.6,36c-0.6,0-1-0.2-1-1v-1.6h-0.4v-0.8h0.4v-0.8h0.9v0.8h0.8v0.8h-0.8v1.4c0,0.2,0.1,0.3,0.3,0.3
		c0.2,0,0.3,0,0.5-0.1v0.8C116.1,36,115.9,36,115.6,36L115.6,36z"/>
	<path class="st1" d="M120,34.7h-2.3c0.1,0.4,0.4,0.6,0.8,0.6c0.3,0,0.5-0.1,0.8-0.3l0.5,0.5c-0.3,0.4-0.7,0.6-1.3,0.6
		c-1,0-1.7-0.7-1.7-1.7v0c0-0.9,0.7-1.7,1.6-1.7c1.1,0,1.6,0.9,1.6,1.8v0C120,34.5,120,34.6,120,34.7L120,34.7z M118.4,33.4
		c-0.4,0-0.6,0.3-0.7,0.7h1.4C119,33.7,118.8,33.4,118.4,33.4L118.4,33.4z"/>
</g>
</svg>
