<svg width="240" height="233" viewBox="0 0 240 233" fill="none" xmlns="http://www.w3.org/2000/svg">
<g clip-path="url(#clip0_3403_10910)">
<path d="M35.5023 212.336C82.1704 239.895 157.835 239.895 204.498 212.336C251.166 184.777 251.166 140.101 204.498 112.542C157.83 84.9839 82.1653 84.9839 35.4972 112.542C-11.1709 140.101 -11.1709 184.777 35.4972 212.336H35.5023Z" fill="#F5F5F5"/>
<path d="M192.092 206.554C204.718 206.554 214.953 200.642 214.953 193.35C214.953 186.057 204.718 180.145 192.092 180.145C179.467 180.145 169.231 186.057 169.231 193.35C169.231 200.642 179.467 206.554 192.092 206.554Z" fill="#E0E0E0"/>
<path d="M177.753 23.3604L181.72 25.6535C181.7 25.4775 181.689 25.3015 181.689 25.1255V23.9764C181.689 21.9318 183.128 21.0984 184.897 22.1233C185.616 22.5374 186.273 23.1948 186.806 23.9609C187.095 21.3882 189.113 20.4306 191.565 21.8438C194.214 23.3759 196.361 27.0977 196.361 30.1569V31.8754C196.361 32.6674 196.216 33.3351 195.952 33.8683L199.247 35.7731C200.23 36.3425 201.027 37.7194 201.027 38.8582C201.027 39.997 200.23 40.4525 199.247 39.8883L177.747 27.4704C176.764 26.901 175.968 25.5241 175.968 24.3853C175.968 23.2465 176.764 22.791 177.747 23.3552L177.753 23.3604Z" fill="#EBEBEB"/>
<path d="M160.773 34.9244L163.769 36.6532C163.753 36.5186 163.743 36.3841 163.743 36.2547V35.385C163.743 33.8425 164.824 33.2162 166.164 33.9874C166.707 34.298 167.204 34.7949 167.607 35.3747C167.825 33.4336 169.351 32.7089 171.198 33.7752C173.2 34.9295 174.819 37.7403 174.819 40.0489V41.3481C174.819 41.9486 174.71 42.4507 174.514 42.8544L177.002 44.2934C177.742 44.7231 178.347 45.7635 178.347 46.6176C178.347 47.4717 177.747 47.8236 177.002 47.394L160.779 38.0198C160.039 37.5901 159.434 36.5497 159.434 35.6904C159.434 34.8312 160.034 34.4844 160.779 34.914L160.773 34.9244Z" fill="#EBEBEB"/>
<path d="M27.9646 132.834C27.6698 132.994 22.2637 134.527 20.2616 131.881C18.2596 129.231 21.5808 125.106 19.7029 123.584C17.825 122.062 12.5586 123.594 11.286 120.39C10.0186 117.186 13.7744 115.814 11.6637 112.584C10.3341 110.55 7.06462 109.416 6.78009 107.537C6.29898 104.401 11.4981 102.956 15.942 105.917C20.3858 108.878 23.0759 107.522 24.4882 107.325C25.9005 107.128 28.9424 107.563 28.8441 112.522C28.7458 117.476 27.9646 132.834 27.9646 132.834Z" fill="#3C478E"/>
<path d="M28.3215 125.784C28.1819 125.784 28.0525 125.68 28.0318 125.535C26.485 116.13 15.5591 108.479 9.87882 106.838C9.72362 106.792 9.63051 106.631 9.67707 106.476C9.72363 106.321 9.884 106.228 10.0444 106.274C15.854 107.951 27.0282 115.793 28.6164 125.442C28.6423 125.602 28.5336 125.753 28.3733 125.778C28.3578 125.778 28.3422 125.778 28.3267 125.778L28.3215 125.784Z" fill="white"/>
<path d="M15.44 117.915C15.3417 117.915 15.2434 117.864 15.1865 117.771C15.1037 117.631 15.1503 117.45 15.29 117.367C15.4659 117.263 19.6717 114.804 23.8104 115.954C23.9656 115.995 24.0587 116.161 24.0173 116.316C23.9759 116.471 23.8155 116.564 23.6552 116.523C19.7597 115.441 15.6314 117.853 15.5952 117.874C15.5486 117.9 15.4969 117.915 15.4452 117.915H15.44Z" fill="white"/>
<path d="M30.0596 136.442C30.0596 137.782 31.0632 139.449 32.2996 140.163L95.0669 176.423C96.3033 177.138 98.3106 177.138 99.547 176.423L185.428 126.814C186.665 126.099 187.668 124.433 187.668 123.092C187.668 121.751 186.665 120.085 185.428 119.37L122.661 83.1105C121.425 82.3961 119.418 82.3961 118.181 83.1105L32.2996 132.72C31.0632 133.434 30.0596 135.101 30.0596 136.442Z" fill="#37474F"/>
<path d="M97.3069 172.106V176.956C96.4947 176.956 95.6825 176.78 95.0669 176.423L32.2996 140.163C31.0632 139.449 30.0596 137.782 30.0596 136.442C30.0596 135.184 30.9442 133.641 32.072 132.865C31.0684 133.584 31.146 134.64 32.2996 135.308L95.0669 171.568C95.6825 171.925 96.4947 172.106 97.3069 172.106Z" fill="#263238"/>
<path d="M27.9597 132.803C26.8009 132.13 25.8594 130.432 25.8594 128.998V54.0558C25.8594 52.6272 26.863 50.8879 28.0994 50.1736L113.976 0.558938C115.212 -0.155389 117.157 -0.191623 118.316 0.481294C119.475 1.15421 120.416 2.85203 120.416 4.28586V79.2281C120.416 80.6567 119.413 82.396 118.176 83.1103L32.2949 132.72C31.0585 133.434 29.1134 133.47 27.9545 132.797L27.9597 132.803Z" fill="#455A64"/>
<path d="M32.0363 132.855C30.7998 133.434 29.0409 133.424 27.9597 132.798C26.8009 132.13 25.8594 130.427 25.8594 128.998V54.0508C25.8594 53.3365 26.1077 52.5445 26.5164 51.8457L30.7171 54.2682C30.3136 54.9774 30.0601 55.7641 30.0601 56.4785V131.426C30.0601 132.751 30.924 133.346 32.0363 132.855Z" fill="#263238"/>
<path d="M30.0596 56.4834V131.426C30.0596 132.854 31.0632 133.434 32.2996 132.72L118.181 83.1102C119.417 82.3958 120.421 80.6566 120.421 79.228V4.28056C120.421 2.85191 119.417 2.27217 118.181 2.98649L32.2996 52.6012C31.0632 53.3155 30.0596 55.0547 30.0596 56.4834Z" fill="#37474F"/>
<path d="M32.3004 135.308L95.0677 171.568C96.3041 172.282 98.3113 172.282 99.5477 171.568L185.429 121.958C186.666 121.244 186.666 120.085 185.429 119.37L122.662 83.1105C121.425 82.3961 119.418 82.3961 118.182 83.1105L32.3004 132.72C31.0639 133.434 31.0639 134.594 32.3004 135.308Z" fill="#455A64"/>
<path d="M33.5052 56.7577L116.303 8.93921C117.043 8.50958 117.648 8.85639 117.648 9.71565V74.59C117.648 75.4493 117.048 76.4897 116.303 76.9193L33.5052 124.738C32.7654 125.167 32.1602 124.821 32.1602 123.961V59.087C32.1602 58.2278 32.7603 57.1873 33.5052 56.7577Z" fill="white"/>
<path d="M33.5052 56.7577L116.303 8.93921C117.043 8.50958 117.648 8.85639 117.648 9.71565V74.59C117.648 75.4493 117.048 76.4897 116.303 76.9193L33.5052 124.738C32.7654 125.167 32.1602 124.821 32.1602 123.961V59.087C32.1602 58.2278 32.7603 57.1873 33.5052 56.7577Z" fill="#BFDCFD"/>
<path d="M39.5838 133.367L119.299 87.3187C119.919 86.9615 120.918 86.9615 121.539 87.3187L125.615 89.6739C126.236 90.031 126.236 90.6108 125.615 90.9679L45.89 137.011C45.2692 137.368 44.2707 137.368 43.65 137.011L39.5838 134.661C38.963 134.304 38.963 133.724 39.5838 133.367Z" fill="#37474F"/>
<path d="M50.0959 139.439L129.811 93.3904C130.432 93.0333 131.43 93.0333 132.051 93.3904L157.131 107.879C157.752 108.236 157.752 108.816 157.131 109.173L77.509 155.159C76.8883 155.516 75.8846 155.516 75.269 155.159L50.1062 140.728C49.4854 140.37 49.4854 139.796 50.1062 139.439H50.0959Z" fill="#263238"/>
<path d="M121.549 114.106L124.042 112.662C124.151 112.6 124.141 112.496 124.027 112.434L121.14 110.767C121.026 110.7 120.851 110.7 120.742 110.757L118.248 112.201C118.14 112.263 118.15 112.367 118.264 112.429L121.151 114.095C121.264 114.163 121.44 114.163 121.549 114.106ZM116.624 108.376L114.13 109.82C114.027 109.882 114.032 109.986 114.146 110.048L117.033 111.714C117.146 111.782 117.322 111.782 117.431 111.725L119.925 110.281C120.033 110.218 120.023 110.115 119.909 110.053L117.022 108.386C116.909 108.319 116.733 108.319 116.624 108.376ZM108.559 113.034L104.337 115.472C104.234 115.534 104.239 115.638 104.353 115.7L107.24 117.367C107.353 117.434 107.529 117.434 107.638 117.377L111.859 114.939C111.968 114.877 111.958 114.774 111.844 114.711L108.957 113.045C108.843 112.977 108.667 112.977 108.559 113.034ZM112.977 110.482L110.483 111.927C110.38 111.989 110.385 112.092 110.499 112.154L113.386 113.821C113.499 113.888 113.675 113.888 113.784 113.831L116.277 112.387C116.386 112.325 116.376 112.222 116.262 112.16L113.375 110.493C113.261 110.425 113.085 110.425 112.977 110.482ZM103.184 116.14L100.69 117.584C100.582 117.646 100.592 117.75 100.706 117.812L103.592 119.479C103.706 119.546 103.882 119.546 103.991 119.489L106.484 118.045C106.588 117.983 106.583 117.879 106.469 117.817L103.582 116.15C103.468 116.083 103.292 116.083 103.184 116.14ZM99.5367 118.247L97.0431 119.691C96.9345 119.753 96.9448 119.857 97.0587 119.919L99.9453 121.586C100.059 121.653 100.235 121.653 100.344 121.596L102.837 120.152C102.946 120.09 102.935 119.986 102.822 119.924L99.935 118.257C99.8212 118.19 99.6453 118.19 99.5367 118.247ZM110.887 125.028L113.38 123.584C113.484 123.521 113.479 123.418 113.365 123.356L110.478 121.689C110.364 121.622 110.183 121.622 110.08 121.679L107.586 123.123C107.478 123.185 107.488 123.289 107.602 123.351L110.488 125.017C110.602 125.085 110.778 125.085 110.887 125.028ZM107.24 127.135L109.733 125.69C109.842 125.628 109.831 125.525 109.718 125.463L106.831 123.796C106.717 123.729 106.541 123.729 106.433 123.785L103.939 125.23C103.83 125.292 103.841 125.395 103.955 125.457L106.841 127.124C106.955 127.191 107.131 127.191 107.24 127.135ZM103.592 129.241L106.086 127.797C106.195 127.735 106.184 127.631 106.07 127.569L103.184 125.903C103.07 125.835 102.894 125.835 102.785 125.892L100.292 127.336C100.183 127.399 100.194 127.502 100.307 127.564L103.194 129.231C103.308 129.298 103.484 129.298 103.592 129.241ZM99.9453 131.348L102.439 129.904C102.542 129.842 102.537 129.738 102.423 129.676L99.5367 128.009C99.4228 127.942 99.2469 127.942 99.1383 127.999L96.6448 129.443C96.5362 129.505 96.5465 129.609 96.6603 129.671L99.547 131.338C99.6608 131.405 99.8367 131.405 99.9453 131.348ZM117.902 116.213L120.395 114.768C120.499 114.706 120.494 114.603 120.38 114.541L117.493 112.874C117.379 112.807 117.203 112.807 117.095 112.864L114.601 114.308C114.493 114.37 114.503 114.473 114.617 114.535L117.503 116.202C117.617 116.27 117.793 116.27 117.902 116.213ZM114.539 122.921L120.106 119.707C120.209 119.644 120.204 119.541 120.09 119.479L113.08 115.431C112.966 115.364 112.791 115.364 112.682 115.421L109.8 117.082C109.692 117.144 109.702 117.248 109.816 117.31L113.525 119.453C113.639 119.52 113.644 119.624 113.541 119.681L111.239 121.011C111.13 121.073 111.14 121.177 111.254 121.239L114.141 122.906C114.255 122.973 114.431 122.973 114.539 122.916V122.921ZM95.8895 120.354L93.396 121.798C93.2925 121.86 93.2977 121.963 93.4115 122.026L96.2982 123.692C96.412 123.76 96.5879 123.76 96.6965 123.703L99.19 122.258C99.2935 122.196 99.2883 122.093 99.1745 122.031L96.2878 120.364C96.174 120.297 95.9981 120.297 95.8895 120.354ZM92.2423 122.46L89.7488 123.905C89.6402 123.967 89.6505 124.07 89.7643 124.132L92.651 125.799C92.7648 125.866 92.9407 125.866 93.0494 125.809L95.5429 124.365C95.6515 124.303 95.6412 124.2 95.5274 124.137L92.6407 122.471C92.5269 122.403 92.351 122.403 92.2423 122.46ZM74.0117 146.09C74.1255 146.157 74.3014 146.157 74.4101 146.1L76.9036 144.656C77.007 144.594 77.0019 144.491 76.8881 144.428L74.0014 142.762C73.8876 142.694 73.7065 142.694 73.603 142.751L71.1095 144.196C71.0009 144.258 71.0112 144.361 71.125 144.423L74.0117 146.09ZM63.0599 139.319L60.5664 140.764C60.4578 140.826 60.4681 140.929 60.5819 140.991L63.4686 142.658C63.5824 142.725 63.7583 142.725 63.8669 142.669L66.3605 141.224C66.4639 141.162 66.4587 141.059 66.3449 140.997L63.4582 139.33C63.3444 139.263 63.1685 139.263 63.0599 139.319ZM68.9316 144.263C69.0454 144.33 69.2213 144.33 69.3299 144.273L71.8234 142.829C71.9269 142.767 71.9217 142.663 71.8079 142.601L68.9212 140.934C68.8074 140.867 68.6315 140.867 68.5229 140.924L66.0294 142.368C65.9207 142.43 65.9311 142.534 66.0449 142.596L68.9316 144.263ZM80.4576 147.369L82.9511 145.924C83.0598 145.862 83.0494 145.759 82.9356 145.697L80.0489 144.03C79.9351 143.963 79.7592 143.963 79.6506 144.02L77.1571 145.464C77.0536 145.526 77.0588 145.629 77.1726 145.692L80.0593 147.358C80.1731 147.426 80.349 147.426 80.4576 147.369ZM76.4121 149.47C76.5259 149.537 76.7018 149.537 76.8105 149.481L79.304 148.036C79.4074 147.974 79.4023 147.871 79.2885 147.809L76.4018 146.142C76.288 146.075 76.1121 146.075 76.0034 146.131L73.5099 147.576C73.4065 147.638 73.4116 147.741 73.5254 147.803L76.4121 149.47ZM66.7122 137.213L64.2187 138.657C64.1101 138.719 64.1204 138.823 64.2342 138.885L67.1209 140.551C67.2347 140.619 67.4106 140.619 67.5193 140.562L70.0128 139.118C70.1214 139.056 70.1111 138.952 69.9973 138.89L67.1106 137.223C66.9968 137.156 66.8209 137.156 66.7122 137.213ZM84.9532 126.674L82.4597 128.118C82.3562 128.18 82.3614 128.284 82.4752 128.346L85.3619 130.013C85.4757 130.08 85.6516 130.08 85.7602 130.023L88.2537 128.579C88.3572 128.517 88.352 128.413 88.2382 128.351L85.3515 126.684C85.2377 126.617 85.0618 126.617 84.9532 126.674ZM70.3646 135.101L67.871 136.545C67.7676 136.607 67.7728 136.711 67.8866 136.773L70.7733 138.44C70.8871 138.507 71.063 138.507 71.1716 138.45L73.6651 137.006C73.7738 136.944 73.7634 136.84 73.6496 136.778L70.7629 135.111C70.6491 135.044 70.4732 135.044 70.3646 135.101ZM88.6055 124.562L86.112 126.006C86.0034 126.068 86.0137 126.172 86.1275 126.234L89.0142 127.901C89.128 127.968 89.3039 127.968 89.4126 127.911L91.9061 126.467C92.0147 126.405 92.0044 126.301 91.8906 126.239L89.0039 124.572C88.8901 124.505 88.7142 124.505 88.6055 124.562ZM81.3112 128.775L78.8177 130.22C78.7091 130.282 78.7194 130.385 78.8332 130.447L81.7199 132.114C81.8337 132.181 82.0096 132.181 82.1182 132.124L84.6118 130.68C84.7152 130.618 84.71 130.515 84.5962 130.453L81.7096 128.786C81.5957 128.718 81.4199 128.718 81.3112 128.775ZM77.6641 130.882L75.1705 132.326C75.0619 132.388 75.0722 132.492 75.1861 132.554L78.0727 134.221C78.1866 134.288 78.3624 134.288 78.4711 134.231L80.9646 132.787C81.0681 132.725 81.0629 132.621 80.9491 132.559L78.0624 130.893C77.9486 130.825 77.7675 130.825 77.6641 130.882ZM74.0169 132.989L71.5234 134.433C71.4147 134.495 71.4251 134.599 71.5389 134.661L74.4256 136.328C74.5394 136.395 74.7153 136.395 74.8239 136.338L77.3174 134.894C77.4209 134.832 77.4157 134.728 77.3019 134.666L74.4152 132.999C74.3014 132.932 74.1255 132.932 74.0169 132.989ZM92.6665 135.556L95.1601 134.112C95.2687 134.05 95.2584 133.947 95.1445 133.884L92.2579 132.218C92.144 132.15 91.9682 132.15 91.8595 132.207L89.366 133.651C89.2574 133.714 89.2677 133.817 89.3815 133.879L92.2682 135.546C92.382 135.613 92.5579 135.613 92.6665 135.556ZM124.705 103.712L122.211 105.156C122.102 105.218 122.113 105.322 122.227 105.384L125.113 107.051C125.227 107.118 125.403 107.118 125.512 107.061L128.005 105.617C128.114 105.555 128.103 105.451 127.99 105.389L125.103 103.722C124.989 103.655 124.813 103.655 124.705 103.712ZM120.287 106.264L117.793 107.708C117.684 107.77 117.695 107.874 117.809 107.936L120.695 109.602C120.809 109.67 120.985 109.67 121.094 109.613L123.587 108.169C123.691 108.107 123.685 108.003 123.572 107.941L120.685 106.274C120.571 106.207 120.395 106.207 120.287 106.264ZM128.352 101.605L125.858 103.049C125.755 103.111 125.76 103.215 125.874 103.277L128.76 104.944C128.874 105.011 129.05 105.011 129.159 104.954L131.652 103.51C131.756 103.448 131.751 103.344 131.637 103.282L128.75 101.615C128.636 101.548 128.46 101.548 128.352 101.605ZM109.469 121.089L111.963 119.644C112.071 119.582 112.061 119.479 111.947 119.417L109.061 117.75C108.947 117.683 108.771 117.683 108.662 117.74L106.169 119.184C106.06 119.246 106.07 119.349 106.184 119.412L109.071 121.078C109.185 121.146 109.361 121.146 109.469 121.089ZM132.397 99.5087C132.283 99.4414 132.108 99.4414 131.999 99.4984L129.505 100.943C129.402 101.005 129.407 101.108 129.521 101.17L132.408 102.837C132.521 102.904 132.697 102.904 132.806 102.847L135.299 101.403C135.408 101.341 135.398 101.238 135.284 101.175L132.397 99.5087ZM96.3137 133.455L98.8072 132.011C98.9159 131.948 98.9055 131.845 98.7917 131.783L95.905 130.116C95.7912 130.049 95.6153 130.049 95.5067 130.106L93.0132 131.55C92.9045 131.612 92.9149 131.716 93.0287 131.778L95.9154 133.444C96.0292 133.512 96.2051 133.512 96.3137 133.455ZM141.047 107.615L143.541 106.171C143.649 106.108 143.639 106.005 143.525 105.943L140.638 104.276C140.524 104.209 140.349 104.209 140.24 104.266L137.746 105.71C137.643 105.772 137.648 105.876 137.762 105.938L140.649 107.604C140.762 107.672 140.938 107.672 141.047 107.615ZM133.277 107.34L135.77 105.896C135.874 105.834 135.869 105.731 135.755 105.668L132.868 104.002C132.754 103.934 132.578 103.934 132.47 103.991L129.976 105.436C129.868 105.498 129.878 105.601 129.992 105.663L132.878 107.33C132.992 107.397 133.168 107.397 133.277 107.34ZM136.52 101.895C136.407 101.828 136.231 101.828 136.122 101.885L133.629 103.329C133.525 103.391 133.53 103.494 133.644 103.557L136.531 105.223C136.645 105.291 136.82 105.291 136.929 105.234L139.423 103.789C139.526 103.727 139.521 103.624 139.407 103.562L136.52 101.895ZM137.286 101.45L144.296 105.498C144.41 105.565 144.586 105.565 144.694 105.508L147.188 104.064C147.296 104.002 147.286 103.898 147.172 103.836L140.162 99.7882C140.049 99.7209 139.873 99.7209 139.764 99.7779L137.271 101.222C137.167 101.284 137.172 101.388 137.286 101.45ZM128.823 106.098L126.329 107.542C126.22 107.604 126.231 107.708 126.345 107.77L129.231 109.437C129.345 109.504 129.521 109.504 129.63 109.447L132.123 108.003C132.227 107.941 132.221 107.837 132.108 107.775L129.221 106.108C129.107 106.041 128.926 106.041 128.823 106.098ZM101.368 121.958L98.8745 123.402C98.7658 123.465 98.7762 123.568 98.89 123.63L101.777 125.297C101.89 125.364 102.066 125.364 102.175 125.307L104.669 123.863C104.777 123.801 104.767 123.697 104.653 123.635L101.766 121.969C101.653 121.901 101.477 121.901 101.368 121.958ZM136.996 109.711C137.11 109.778 137.286 109.778 137.395 109.722L139.888 108.277C139.992 108.215 139.986 108.112 139.873 108.05L136.986 106.383C136.872 106.316 136.696 106.316 136.588 106.372L134.094 107.817C133.985 107.879 133.996 107.982 134.11 108.044L136.996 109.711ZM105.015 119.852L102.522 121.296C102.413 121.358 102.423 121.461 102.537 121.523L105.424 123.19C105.538 123.258 105.714 123.257 105.822 123.201L108.316 121.756C108.424 121.694 108.414 121.591 108.3 121.529L105.413 119.862C105.3 119.795 105.124 119.795 105.015 119.852ZM77.6744 143.983C77.7882 144.051 77.9641 144.051 78.0727 143.994L80.5663 142.55C80.6697 142.487 80.6646 142.384 80.5507 142.322L77.6641 140.655C77.5502 140.588 77.3744 140.588 77.2657 140.645L74.7722 142.089C74.6636 142.151 74.6739 142.254 74.7877 142.317L77.6744 143.983ZM72.1856 138.817L69.692 140.262C69.5886 140.324 69.5937 140.427 69.7076 140.489L72.5942 142.156C72.7081 142.223 72.884 142.223 72.9926 142.166L75.4861 140.722C75.5947 140.66 75.5844 140.557 75.4706 140.495L72.5839 138.828C72.4701 138.76 72.2942 138.76 72.1856 138.817ZM81.7199 141.887L84.2134 140.443C84.3221 140.381 84.3117 140.277 84.1979 140.215L81.3112 138.548C81.1974 138.481 81.0215 138.481 80.9129 138.538L78.4193 139.982C78.3159 140.044 78.3211 140.148 78.4349 140.21L81.3216 141.877C81.4354 141.944 81.6113 141.944 81.7199 141.887ZM85.3671 139.78L87.8606 138.336C87.9692 138.274 87.9589 138.17 87.8451 138.108L84.9584 136.441C84.8446 136.374 84.6687 136.374 84.56 136.431L82.0665 137.875C81.963 137.937 81.9682 138.041 82.082 138.103L84.9687 139.77C85.0825 139.837 85.2584 139.837 85.3671 139.78ZM89.0142 137.673L91.5077 136.229C91.6112 136.167 91.606 136.064 91.4922 136.001L88.6055 134.335C88.4917 134.267 88.3158 134.267 88.2072 134.324L85.7137 135.769C85.605 135.831 85.6154 135.934 85.7292 135.996L88.6159 137.663C88.7297 137.73 88.9056 137.73 89.0142 137.673ZM75.8327 136.716L73.3392 138.16C73.2306 138.222 73.2409 138.326 73.3547 138.388L76.2414 140.055C76.3552 140.122 76.5311 140.122 76.6397 140.065L79.1333 138.621C79.2419 138.559 79.2316 138.455 79.1177 138.393L76.2311 136.726C76.1172 136.659 75.9414 136.659 75.8327 136.716ZM79.4799 134.609L76.9864 136.053C76.8777 136.115 76.8881 136.219 77.0019 136.281L79.8886 137.948C80.0024 138.015 80.1783 138.015 80.2869 137.958L82.7804 136.514C82.8839 136.452 82.8787 136.348 82.7649 136.286L79.8782 134.619C79.7644 134.552 79.5885 134.552 79.4799 134.609ZM94.0685 126.182L91.575 127.626C91.4664 127.688 91.4767 127.792 91.5905 127.854L94.4772 129.521C94.591 129.588 94.7669 129.588 94.8755 129.531L97.3691 128.087C97.4777 128.025 97.4673 127.921 97.3535 127.859L94.4668 126.192C94.353 126.125 94.1771 126.125 94.0685 126.182ZM90.4213 128.289L87.9278 129.733C87.8244 129.795 87.8295 129.899 87.9433 129.961L90.83 131.628C90.9438 131.695 91.1249 131.695 91.2284 131.638L93.7219 130.194C93.8254 130.132 93.8202 130.028 93.7064 129.966L90.8197 128.299C90.7059 128.232 90.53 128.232 90.4213 128.289ZM97.7157 124.075L95.2221 125.52C95.1135 125.582 95.1239 125.685 95.2377 125.747L98.1244 127.414C98.2382 127.481 98.4141 127.481 98.5227 127.424L101.016 125.98C101.125 125.918 101.115 125.815 101.001 125.752L98.114 124.086C98.0002 124.018 97.8243 124.018 97.7157 124.075ZM83.127 132.502L80.6335 133.947C80.53 134.009 80.5352 134.112 80.649 134.174L83.5357 135.841C83.6495 135.908 83.8254 135.908 83.9341 135.851L86.4276 134.407C86.531 134.345 86.5259 134.242 86.4121 134.179L83.5254 132.513C83.4116 132.445 83.2357 132.445 83.127 132.502ZM86.7742 130.396L84.2807 131.84C84.1772 131.902 84.1824 132.005 84.2962 132.068L87.1829 133.734C87.2967 133.802 87.4726 133.802 87.5812 133.745L90.0747 132.3C90.1834 132.238 90.173 132.135 90.0592 132.073L87.1725 130.406C87.0587 130.339 86.8828 130.339 86.7742 130.396ZM84.11 145.272L86.6035 143.828C86.7121 143.766 86.7018 143.662 86.588 143.6L83.7013 141.934C83.5875 141.866 83.4116 141.866 83.3029 141.923L80.8094 143.367C80.7008 143.429 80.7111 143.533 80.8249 143.595L83.7116 145.262C83.8254 145.329 84.0013 145.329 84.11 145.272ZM62.703 143.109L59.8163 141.442C59.7025 141.374 59.5266 141.374 59.4179 141.431L56.9244 142.876C56.8158 142.938 56.8261 143.041 56.9399 143.103L59.8266 144.77C59.9404 144.837 60.1163 144.837 60.225 144.78L62.7185 143.336C62.8271 143.274 62.8168 143.171 62.703 143.109ZM68.1711 144.713L65.2844 143.046C65.1706 142.979 64.9947 142.979 64.8861 143.036L61.0475 145.257C60.9389 145.319 60.9492 145.422 61.063 145.484L63.9497 147.151C64.0635 147.219 64.2394 147.219 64.3481 147.162L68.1866 144.941C68.2953 144.879 68.2849 144.775 68.1711 144.713ZM58.2746 139.884L55.3879 138.217C55.2741 138.15 55.0982 138.15 54.9896 138.207L51.9167 139.982C51.8132 140.044 51.8184 140.148 51.9322 140.21L54.8189 141.877C54.9327 141.944 55.1138 141.944 55.2172 141.887L58.2901 140.111C58.3988 140.049 58.3884 139.946 58.2746 139.884ZM60.6285 138.522C60.7423 138.59 60.9182 138.59 61.0268 138.533L63.5203 137.089C63.629 137.026 63.6186 136.923 63.5048 136.861L60.6181 135.194C60.5043 135.127 60.3284 135.127 60.2198 135.184L57.7263 136.628C57.6176 136.69 57.628 136.793 57.7418 136.856L60.6285 138.522ZM73.2513 146.54L70.3646 144.874C70.2508 144.806 70.0749 144.806 69.9662 144.863L65.1654 147.638C65.062 147.7 65.0671 147.803 65.1809 147.866L68.0676 149.532C68.1814 149.6 68.3573 149.6 68.466 149.543L73.2668 146.768C73.3754 146.706 73.3651 146.603 73.2513 146.54ZM75.6465 149.921L72.7598 148.254C72.646 148.186 72.4701 148.186 72.3615 148.243L69.2885 150.019C69.1799 150.081 69.1902 150.185 69.304 150.247L72.1907 151.913C72.3045 151.981 72.4804 151.981 72.5891 151.924L75.662 150.148C75.7655 150.086 75.7603 149.983 75.6465 149.921ZM87.7519 122.859C87.8658 122.926 88.0416 122.926 88.1503 122.869L90.6438 121.425C90.7524 121.363 90.7421 121.259 90.6283 121.197L87.7416 119.531C87.6278 119.463 87.4467 119.463 87.3432 119.52L84.8497 120.964C84.7411 121.027 84.7514 121.13 84.8652 121.192L87.7519 122.859ZM80.4576 127.072C80.5714 127.14 80.7473 127.14 80.856 127.083L83.3495 125.639C83.4529 125.576 83.4478 125.473 83.334 125.411L80.4473 123.744C80.3335 123.677 80.1576 123.677 80.0489 123.734L77.5554 125.178C77.4468 125.24 77.4571 125.344 77.5709 125.406L80.4576 127.072ZM64.2808 136.421C64.3946 136.488 64.5757 136.488 64.6791 136.431L67.1727 134.987C67.2761 134.925 67.271 134.821 67.1571 134.759L64.2705 133.092C64.1566 133.025 63.9808 133.025 63.8721 133.082L61.3786 134.526C61.2751 134.588 61.2803 134.692 61.3941 134.754L64.2808 136.421ZM84.1048 124.966C84.2186 125.033 84.3945 125.033 84.5031 124.976L86.9966 123.532C87.1001 123.47 87.0949 123.366 86.9811 123.304L84.0944 121.637C83.9806 121.57 83.8047 121.57 83.6961 121.627L81.2026 123.071C81.0939 123.133 81.1043 123.237 81.2181 123.299L84.1048 124.966ZM76.8105 129.179C76.9243 129.246 77.1002 129.246 77.2088 129.19L79.7023 127.745C79.811 127.683 79.8006 127.58 79.6868 127.518L76.8001 125.851C76.6863 125.784 76.5104 125.784 76.4018 125.84L73.9083 127.285C73.7996 127.347 73.81 127.45 73.9238 127.512L76.8105 129.179ZM77.6537 150.195C77.5399 150.128 77.364 150.128 77.2554 150.185L73.4168 152.405C73.3082 152.467 73.3185 152.571 73.4323 152.633L76.319 154.3C76.4328 154.367 76.6087 154.367 76.7173 154.31L80.5559 152.089C80.6646 152.027 80.6542 151.924 80.5404 151.862L77.6537 150.195ZM71.5751 132.207C71.6889 132.275 71.8648 132.275 71.9735 132.218L74.467 130.773C74.5756 130.711 74.5653 130.608 74.4515 130.546L71.5648 128.879C71.451 128.812 71.2751 128.812 71.1664 128.869L68.6729 130.313C68.5643 130.375 68.5746 130.478 68.6884 130.541L71.5751 132.207ZM67.928 134.314C68.0418 134.381 68.2177 134.381 68.3263 134.324L70.8198 132.88C70.9284 132.818 70.9181 132.715 70.8043 132.652L67.9176 130.986C67.8038 130.918 67.6279 130.918 67.5193 130.975L65.0258 132.42C64.9223 132.482 64.9275 132.585 65.0413 132.647L67.928 134.314ZM145.237 111.155C145.124 111.088 144.948 111.088 144.839 111.145L138.693 114.696C138.585 114.758 138.595 114.862 138.709 114.924L141.595 116.59C141.709 116.658 141.885 116.658 141.994 116.601L148.14 113.05C148.243 112.988 148.238 112.884 148.124 112.822L145.237 111.155ZM137.172 115.814C137.058 115.747 136.883 115.747 136.774 115.804L134.28 117.248C134.172 117.31 134.182 117.413 134.296 117.476L137.183 119.142C137.296 119.21 137.472 119.21 137.581 119.153L140.074 117.709C140.183 117.646 140.173 117.543 140.059 117.481L137.172 115.814ZM87.7623 143.165L90.2558 141.721C90.3593 141.659 90.3541 141.556 90.2403 141.494L87.3536 139.827C87.2398 139.759 87.0639 139.759 86.9552 139.816L84.4617 141.261C84.3531 141.323 84.3634 141.426 84.4773 141.488L87.3639 143.155C87.4778 143.222 87.6536 143.222 87.7623 143.165ZM129.878 120.028C129.764 119.96 129.588 119.96 129.48 120.017L126.986 121.461C126.883 121.523 126.888 121.627 127.002 121.689L129.888 123.356C130.002 123.423 130.178 123.423 130.287 123.366L132.78 121.922C132.889 121.86 132.878 121.756 132.765 121.694L129.878 120.028ZM148.884 109.049C148.771 108.981 148.595 108.981 148.486 109.038L145.993 110.482C145.889 110.545 145.894 110.648 146.008 110.71L148.895 112.377C149.009 112.444 149.185 112.444 149.293 112.387L151.787 110.943C151.895 110.881 151.885 110.777 151.771 110.715L148.884 109.049ZM155.418 108.609L148.409 104.561C148.295 104.493 148.119 104.493 148.01 104.55L145.517 105.995C145.408 106.057 145.418 106.16 145.532 106.222L152.542 110.27C152.656 110.337 152.832 110.337 152.94 110.281L155.434 108.836C155.542 108.774 155.532 108.671 155.418 108.609ZM116.246 127.906C116.133 127.839 115.957 127.839 115.848 127.895L112.775 129.671C112.666 129.733 112.677 129.837 112.791 129.899L115.677 131.565C115.791 131.633 115.967 131.633 116.076 131.576L119.149 129.8C119.257 129.738 119.247 129.635 119.133 129.573L116.246 127.906ZM125.46 122.585C125.346 122.517 125.17 122.517 125.062 122.574L121.223 124.795C121.12 124.857 121.125 124.96 121.239 125.023L124.125 126.689C124.239 126.757 124.415 126.757 124.524 126.7L128.362 124.479C128.471 124.417 128.46 124.313 128.347 124.251L125.46 122.585ZM107.798 132.787C107.685 132.72 107.509 132.72 107.4 132.777L86.857 144.646C86.7483 144.708 86.7587 144.812 86.8725 144.874L89.7592 146.54C89.873 146.608 90.0489 146.608 90.1575 146.551L110.701 134.682C110.809 134.619 110.799 134.516 110.685 134.454L107.798 132.787ZM86.1017 145.319C85.9879 145.252 85.8068 145.252 85.7033 145.308L82.6304 147.084C82.5218 147.146 82.5321 147.25 82.6459 147.312L85.5326 148.978C85.6464 149.046 85.8223 149.046 85.9309 148.989L89.0039 147.213C89.1073 147.151 89.1022 147.048 88.9883 146.986L86.1017 145.319ZM112.02 130.344C111.906 130.277 111.73 130.277 111.621 130.333L108.548 132.109C108.44 132.171 108.45 132.275 108.564 132.337L111.451 134.003C111.565 134.071 111.74 134.071 111.849 134.014L114.922 132.238C115.031 132.176 115.02 132.073 114.906 132.011L112.02 130.344ZM81.8751 147.757C81.7613 147.69 81.5854 147.69 81.4768 147.746L78.4038 149.522C78.3004 149.584 78.3055 149.688 78.4193 149.75L81.306 151.416C81.4198 151.484 81.5957 151.484 81.7044 151.427L84.7773 149.651C84.8808 149.589 84.8756 149.486 84.7618 149.424L81.8751 147.757ZM120.468 125.463C120.354 125.395 120.178 125.395 120.069 125.452L116.996 127.228C116.893 127.29 116.898 127.393 117.012 127.455L119.899 129.122C120.012 129.19 120.188 129.19 120.297 129.133L123.37 127.357C123.479 127.295 123.468 127.191 123.354 127.129L120.468 125.463ZM133.525 117.921C133.411 117.853 133.235 117.853 133.127 117.91L130.633 119.355C130.525 119.417 130.535 119.52 130.649 119.582L133.535 121.249C133.649 121.316 133.825 121.316 133.934 121.259L136.427 119.815C136.536 119.753 136.526 119.65 136.412 119.588L133.525 117.921ZM141.518 112.113L144.011 110.669C144.12 110.607 144.11 110.503 143.996 110.441L141.109 108.774C140.995 108.707 140.819 108.707 140.711 108.764L138.217 110.208C138.114 110.27 138.119 110.374 138.233 110.436L141.119 112.103C141.233 112.17 141.409 112.17 141.518 112.113ZM125.206 112.009L127.7 110.565C127.809 110.503 127.798 110.4 127.684 110.337L124.798 108.671C124.684 108.603 124.508 108.603 124.399 108.66L121.906 110.105C121.797 110.167 121.808 110.27 121.921 110.332L124.808 111.999C124.922 112.066 125.098 112.066 125.206 112.009ZM116.94 126.312L124.234 122.098C124.342 122.036 124.332 121.932 124.218 121.87L121.332 120.203C121.218 120.136 121.042 120.136 120.933 120.193L113.639 124.407C113.53 124.469 113.541 124.572 113.655 124.634L116.541 126.301C116.655 126.368 116.831 126.368 116.94 126.312ZM137.467 114.215C137.581 114.282 137.757 114.282 137.865 114.225L140.359 112.781C140.468 112.719 140.457 112.615 140.343 112.553L137.457 110.886C137.343 110.819 137.167 110.819 137.058 110.876L134.56 112.32C134.456 112.382 134.461 112.486 134.575 112.548L137.462 114.215H137.467ZM133.742 111.839L136.236 110.394C136.339 110.332 136.334 110.229 136.22 110.167L133.334 108.5C133.22 108.433 133.039 108.433 132.935 108.49L130.442 109.934C130.333 109.996 130.343 110.099 130.457 110.162L133.344 111.828C133.458 111.896 133.634 111.896 133.742 111.839ZM113.292 128.418L115.786 126.974C115.895 126.912 115.884 126.808 115.77 126.746L112.884 125.08C112.77 125.012 112.594 125.012 112.485 125.069L109.992 126.513C109.883 126.575 109.894 126.679 110.007 126.741L112.894 128.408C113.008 128.475 113.184 128.475 113.292 128.418ZM129.407 118.873C129.521 118.94 129.697 118.94 129.805 118.884L132.299 117.439C132.408 117.377 132.397 117.274 132.283 117.212L129.397 115.545C129.283 115.478 129.107 115.478 128.998 115.534L126.505 116.979C126.396 117.041 126.407 117.144 126.52 117.206L129.407 118.873ZM95.0566 138.957L97.5501 137.513C97.6536 137.451 97.6484 137.347 97.5346 137.285L94.6479 135.618C94.5341 135.551 94.3582 135.551 94.2496 135.608L91.756 137.052C91.6474 137.114 91.6578 137.218 91.7716 137.28L94.6583 138.947C94.7721 139.014 94.948 139.014 95.0566 138.957ZM98.7038 136.85L101.197 135.406C101.301 135.344 101.296 135.241 101.182 135.178L98.2951 133.512C98.1813 133.444 98.0054 133.444 97.8967 133.501L95.4032 134.946C95.2997 135.008 95.3049 135.111 95.4187 135.173L98.3054 136.84C98.4192 136.907 98.5951 136.907 98.7038 136.85ZM91.4094 141.064L93.903 139.62C94.0116 139.558 94.0013 139.454 93.8874 139.392L91.0008 137.725C90.8869 137.658 90.711 137.658 90.6024 137.715L88.1089 139.159C88.0003 139.221 88.0106 139.325 88.1244 139.387L91.0111 141.054C91.1249 141.121 91.3008 141.121 91.4094 141.064ZM105.998 132.637L108.492 131.193C108.6 131.131 108.59 131.027 108.476 130.965L105.589 129.298C105.476 129.231 105.3 129.231 105.191 129.288L102.698 130.732C102.594 130.794 102.599 130.898 102.713 130.96L105.6 132.627C105.714 132.694 105.895 132.694 105.998 132.637ZM102.351 134.744L104.844 133.299C104.953 133.237 104.943 133.134 104.829 133.072L101.942 131.405C101.828 131.338 101.653 131.338 101.544 131.395L99.0504 132.839C98.9469 132.901 98.9521 133.004 99.0659 133.067L101.953 134.733C102.066 134.801 102.242 134.801 102.351 134.744ZM109.645 130.53L112.139 129.086C112.242 129.024 112.237 128.92 112.123 128.858L109.237 127.191C109.123 127.124 108.947 127.124 108.838 127.181L106.345 128.625C106.241 128.687 106.246 128.791 106.36 128.853L109.247 130.52C109.361 130.587 109.537 130.587 109.645 130.53ZM126.334 99.3586C126.448 99.4259 126.624 99.4259 126.733 99.369L129.226 97.9248C129.335 97.8627 129.324 97.7591 129.211 97.697L128.445 97.2519C128.331 97.1846 128.155 97.1846 128.047 97.2415L125.553 98.6857C125.45 98.7478 125.455 98.8513 125.569 98.9134L126.334 99.3586ZM108.388 110.948C108.502 111.016 108.678 111.016 108.786 110.959L111.28 109.514C111.383 109.452 111.378 109.349 111.264 109.287L108.378 107.62C108.264 107.553 108.083 107.553 107.979 107.61L105.486 109.054C105.377 109.116 105.388 109.219 105.501 109.282L108.388 110.948ZM115.682 106.735C115.796 106.802 115.972 106.802 116.081 106.745L118.574 105.301C118.683 105.239 118.673 105.135 118.559 105.073L115.672 103.406C115.558 103.339 115.382 103.339 115.274 103.396L112.78 104.84C112.677 104.902 112.682 105.006 112.796 105.068L115.682 106.735ZM103.934 113.521C104.048 113.588 104.224 113.588 104.332 113.531L106.826 112.087C106.929 112.025 106.924 111.921 106.81 111.859L103.924 110.193C103.81 110.125 103.634 110.125 103.525 110.182L101.032 111.626C100.923 111.689 100.933 111.792 101.047 111.854L103.934 113.521ZM112.035 108.842C112.149 108.909 112.325 108.909 112.434 108.852L114.927 107.408C115.031 107.346 115.025 107.242 114.912 107.18L112.025 105.513C111.911 105.446 111.735 105.446 111.627 105.503L109.133 106.947C109.024 107.009 109.035 107.113 109.149 107.175L112.035 108.842ZM96.6396 117.734C96.7534 117.802 96.9293 117.802 97.038 117.745L99.5315 116.301C99.6401 116.238 99.6298 116.135 99.516 116.073L96.6293 114.406C96.5155 114.339 96.3396 114.339 96.2309 114.396L93.7374 115.84C93.6288 115.902 93.6391 116.006 93.7529 116.068L96.6396 117.734ZM100.287 115.628C100.401 115.695 100.576 115.695 100.685 115.638L103.179 114.194C103.282 114.132 103.277 114.028 103.163 113.966L100.276 112.299C100.163 112.232 99.9867 112.232 99.8781 112.289L97.3846 113.733C97.2759 113.795 97.2863 113.899 97.4001 113.961L100.287 115.628ZM119.04 103.572C119.154 103.639 119.33 103.639 119.438 103.582L121.932 102.138C122.035 102.076 122.03 101.973 121.916 101.911L121.145 101.465C121.032 101.398 120.856 101.398 120.747 101.455L118.254 102.899C118.145 102.961 118.155 103.065 118.269 103.127L119.035 103.572H119.04ZM129.981 97.2519C130.095 97.3191 130.271 97.3191 130.38 97.2622L132.873 95.818C132.977 95.7559 132.972 95.6524 132.858 95.5903L132.087 95.1451C131.973 95.0778 131.797 95.0778 131.689 95.1348L129.195 96.5789C129.092 96.6411 129.097 96.7446 129.211 96.8067L129.976 97.2519H129.981ZM136.044 100.756C136.158 100.823 136.334 100.823 136.443 100.767L138.936 99.3224C139.045 99.2603 139.035 99.1567 138.921 99.0946L136.034 97.4278C135.92 97.3606 135.744 97.3606 135.636 97.4175L133.142 98.8617C133.034 98.9238 133.044 99.0273 133.158 99.0894L136.044 100.756ZM145.165 110.017L147.658 108.572C147.767 108.51 147.757 108.407 147.643 108.345L144.756 106.678C144.642 106.611 144.467 106.611 144.358 106.668L141.864 108.112C141.761 108.174 141.766 108.277 141.88 108.339L144.767 110.006C144.88 110.074 145.056 110.074 145.165 110.017ZM122.687 101.465C122.801 101.533 122.977 101.533 123.085 101.476L125.579 100.032C125.688 99.9694 125.677 99.8659 125.563 99.8038L124.793 99.3586C124.679 99.2913 124.503 99.2913 124.394 99.3482L121.901 100.792C121.797 100.855 121.802 100.958 121.916 101.02L122.687 101.465ZM92.9873 119.846C93.1011 119.914 93.2822 119.914 93.3856 119.857L95.8791 118.412C95.9878 118.35 95.9774 118.247 95.8636 118.185L92.9769 116.518C92.8631 116.451 92.6872 116.451 92.5786 116.508L90.0851 117.952C89.9816 118.014 89.9868 118.117 90.1006 118.18L92.9873 119.846Z" fill="#455A64"/>
<path d="M109.159 141.737L133.789 127.507C134.529 127.078 135.734 127.078 136.479 127.507L150.602 135.665C151.342 136.095 151.342 136.788 150.602 137.218L125.972 151.448C125.233 151.877 124.027 151.877 123.282 151.448L109.159 143.29C108.42 142.86 108.42 142.167 109.159 141.737Z" fill="#263238"/>
<path d="M154.451 73.3116L154.457 73.3064L154.426 73.2857L150.22 70.8632C149.977 70.7545 149.62 70.8581 149.19 71.1842C145.279 74.1812 140.018 75.1078 135.719 73.7412C135.445 73.4876 135.181 73.2133 134.933 72.9234C134.907 72.8923 134.881 72.8613 134.855 72.8354H134.85C134.705 72.6749 134.56 72.5559 134.415 72.4782L134.343 72.4368L130.132 70.0195C129.651 69.7917 129.216 70.0195 128.926 70.7338C124.86 80.8431 116.195 91.087 110.417 93.6492C109.987 93.8407 109.589 94.1358 109.278 94.4981C108.87 94.9692 108.616 95.5489 108.637 96.1545L109.47 118.853C109.47 125.411 112.238 132.337 117.882 135.707L122.237 138.222L122.315 138.264C124.477 139.501 127.049 140.225 130.034 140.225C130.639 140.225 131.254 140.2 131.891 140.137C132.956 140.034 134.436 139.263 135.181 138.491C147.809 125.442 153.95 107.78 153.95 98.0077L154.783 74.264C154.803 73.7516 154.679 73.4358 154.451 73.3116Z" fill="#27DEBF"/>
<path d="M154.783 74.2639L153.95 98.0075C153.95 107.78 147.809 125.442 135.181 138.491C134.436 139.262 132.957 140.034 131.891 140.137C131.255 140.199 130.639 140.225 130.034 140.225C127.049 140.225 124.478 139.501 122.315 138.263L122.238 138.222L122.088 138.129C116.444 134.759 113.676 127.833 113.676 121.275L112.843 98.5769C112.822 97.9713 113.076 97.3915 113.484 96.9205C113.795 96.5582 114.193 96.2631 114.623 96.0716C120.401 93.5093 129.066 83.2655 133.133 73.1562C133.422 72.4419 133.862 72.2089 134.343 72.4367L134.416 72.4781C134.56 72.5557 134.705 72.6748 134.85 72.8353H134.855C134.881 72.8611 134.907 72.8922 134.933 72.9232C139.247 77.9494 147.732 77.9442 153.396 73.6065C153.826 73.2804 154.183 73.1769 154.426 73.2856L154.457 73.3063C154.457 73.3063 154.452 73.3063 154.452 73.3115C154.679 73.4357 154.803 73.7515 154.783 74.2639Z" fill="#3C478E"/>
<path d="M154.426 73.2859C154.183 73.1772 153.826 73.2807 153.396 73.6068C148.063 77.6909 140.225 77.9342 135.729 73.7414C140.028 75.1131 145.279 74.1814 149.19 71.1843C149.62 70.8582 149.977 70.7547 150.22 70.8634L154.426 73.2859Z" fill="#2B3A76"/>
<path d="M134.343 72.4368C133.862 72.2091 133.422 72.442 133.133 73.1563C129.066 83.2656 120.401 93.5095 114.623 96.0717C114.193 96.2633 113.795 96.5583 113.485 96.9206C113.376 97.0449 113.278 97.1794 113.195 97.3192L108.994 94.8915C109.077 94.757 109.17 94.6224 109.279 94.4981C109.336 94.4308 109.398 94.3687 109.465 94.3066H109.47C109.496 94.2807 109.517 94.2548 109.543 94.229C109.568 94.2083 109.589 94.1876 109.615 94.1617C109.853 93.9546 110.127 93.7735 110.417 93.6492C116.195 91.087 124.861 80.8431 128.927 70.7338C129.216 70.0195 129.651 69.7917 130.132 70.0195L134.343 72.4368Z" fill="#2B3A76"/>
<path d="M109.47 94.2963C109.491 94.2704 109.517 94.2497 109.542 94.229C109.517 94.2549 109.496 94.2808 109.47 94.3015V94.2963Z" fill="white"/>
<path opacity="0.15" d="M109.542 94.229C109.517 94.2549 109.496 94.2808 109.47 94.3015C109.491 94.2756 109.517 94.2549 109.542 94.2342V94.229Z" fill="white"/>
<path d="M122.315 138.264L122.237 138.227L117.882 135.707C112.238 132.337 109.47 125.411 109.47 118.853L108.637 96.1546C108.621 95.7094 108.756 95.2746 108.994 94.8916L113.195 97.3193C112.962 97.7023 112.827 98.132 112.843 98.5771L113.676 121.275C113.676 127.833 116.443 134.759 122.087 138.129L122.237 138.222L122.315 138.264Z" fill="#2B3A76"/>
<path d="M204.198 132.798C204.56 119.313 203.478 116.083 199.893 113.614L198.502 121.425C198.502 121.425 200.137 130.634 199.961 133.698C199.805 136.39 199.547 139.76 198.91 141.939C198.797 142.327 198.538 142.648 198.197 142.86C197.281 143.43 196.914 144.02 196.226 144.739C195.688 145.303 195.227 145.443 195.3 145.624C195.393 145.857 195.775 146.23 196.438 146.028C196.769 145.925 197.198 145.666 197.736 145.324C197.736 145.324 197.353 146.447 196.407 147.607C195.124 149.181 195.072 150.143 197.653 150.164C199.273 150.18 200.566 149.181 201.787 145.604C202.139 144.574 202.687 142.948 202.925 141.592C203.546 138.057 204.141 134.961 204.198 132.792V132.798Z" fill="#E9A5A5"/>
<path d="M196.872 112.595C198.584 112.346 200.912 112.703 202.418 115.395C203.923 118.087 204.291 122.714 204.461 127.316C204.461 127.316 201.476 129.816 197.891 128.584L196.872 112.589V112.595Z" fill="#27DEBF"/>
<path d="M196.872 112.595C198.584 112.346 200.912 112.703 202.418 115.395C203.923 118.087 204.291 122.714 204.461 127.316C204.461 127.316 201.476 129.816 197.891 128.584L196.872 112.589V112.595Z" fill="#E6F1F1"/>
<path d="M201.91 186.745C202.185 186.848 202.252 187.366 202.293 188.396C202.324 189.178 202.49 190.539 201.579 190.808C200.669 191.077 199.329 190.943 198.744 190.208C198.015 189.291 197.524 188.484 196.479 187.366C195.573 186.393 194.595 185.487 194.233 184.126C193.902 182.894 194.176 182.36 195.015 182.003C196.168 181.511 197.979 183.116 198.884 183.37C199.66 183.587 201.636 186.641 201.91 186.745Z" fill="#263238"/>
<path d="M201.911 185.792V187.055C201.911 187.055 200.597 188.065 198.714 187.143C198.657 187.019 198.383 185.332 198.383 185.332L201.911 185.792Z" fill="#E9A5A5"/>
<path d="M191.673 194.033C191.673 194.033 192.035 195.136 192.232 196.093C192.387 196.859 192.61 198.138 192.341 198.712C192.072 199.287 191.027 199.66 189.413 199.644C188.362 199.634 186.733 200.348 185.61 200.974C184.457 201.621 182.051 201.875 180.83 201.735C179.392 201.564 177.897 200.731 177.664 200.136C177.431 199.541 177.742 198.919 181.135 197.47C181.166 197.455 185.853 195.933 187.499 194.116L191.673 194.028V194.033Z" fill="#263238"/>
<path d="M191.673 192.667C191.673 192.667 191.673 193.603 191.673 194.142C191.673 194.68 191.042 195.477 189.407 195.42C188.253 195.379 187.451 195.068 187.498 194.121V192.755L191.673 192.667Z" fill="#E9A5A5"/>
<path d="M202.733 169C202.154 164.864 201.238 162.411 201.238 162.411C201.238 162.411 201.688 156.727 201.905 151.339C202.138 145.515 201.895 138.201 202.004 136.747C202.004 136.747 183.23 132.947 182.894 139.677C182.557 146.406 183.633 163.534 183.856 166.495C184.078 169.451 184.59 172.065 185.201 176.858C185.801 181.589 187.493 192.754 187.493 192.754C189.64 193.914 191.668 192.666 191.668 192.666C191.668 192.666 192.987 179.208 192.852 175.797C192.681 171.63 191.559 168.353 191.559 168.353C191.559 168.353 191.916 162.804 192.231 157.98C192.547 153.156 192.878 150.837 192.95 148.735L193.354 148.533C193.354 148.533 193.768 156.862 193.985 159.818C194.208 162.773 194.678 165.61 195.532 171.102C196.272 175.864 198.481 185.942 198.481 185.942C200.628 187.102 201.905 185.792 201.905 185.792C201.905 185.792 203.307 173.136 202.728 169.005L202.733 169Z" fill="#34457C"/>
<path d="M192.951 148.735C192.951 148.735 197.504 146.489 199.785 144.465C199.785 144.465 197.669 147.446 194.891 148.772C194.891 148.772 193.903 159.114 193.908 158.912L193.339 148.72L192.956 148.735H192.951Z" fill="#263238"/>
<path d="M188.9 110.462L190.007 116.58L195.533 116.176L194.374 109.24L188.9 110.462Z" fill="#E9A5A5"/>
<path d="M201.363 115.726C200.815 114.065 198.709 112.253 196.599 112.646C192.719 113.366 189.646 114.137 187.354 114.955C185.424 115.643 183.66 117.315 183.5 123.677C183.5 123.677 182.853 138.502 182.843 141.369C187.695 143.29 192.739 143.233 195.533 142.622C201.337 141.354 202.041 138.942 202.041 138.942C202.041 138.942 202.113 128.279 201.943 123.677C201.792 119.764 201.741 116.87 201.368 115.726H201.363Z" fill="#27DEBF"/>
<path d="M201.363 115.726C200.815 114.065 198.709 112.253 196.599 112.646C192.719 113.366 189.646 114.137 187.354 114.955C185.424 115.643 183.66 117.315 183.5 123.677C183.5 123.677 182.853 138.502 182.843 141.369C187.695 143.29 192.739 143.233 195.533 142.622C201.337 141.354 202.041 138.942 202.041 138.942C202.041 138.942 202.113 128.279 201.943 123.677C201.792 119.764 201.741 116.87 201.368 115.726H201.363Z" fill="#F9EDEE"/>
<path d="M184.637 103.019C184.637 103.019 183.235 105.255 183.406 105.467C183.577 105.679 184.648 105.85 184.648 105.85L184.637 103.019Z" fill="#E9A5A5"/>
<path d="M188.528 96.8378C185.605 97.5211 184.788 98.8307 184.617 103.505C184.436 108.386 184.969 109.908 185.626 110.55C186.065 110.985 188.471 111.01 189.671 110.648C191.177 110.198 194.575 108.904 196.122 106.414C197.943 103.489 198.352 99.5657 196.298 98.0077C193.406 95.8129 189.718 96.5583 188.528 96.8378Z" fill="#E9A5A5"/>
<path d="M184.648 98.054C185.507 99.524 187.364 100.223 187.364 100.223C187.923 100.86 187.618 103.349 188.601 103.748C188.601 103.748 189.025 101.936 190.546 102.128C192.077 102.319 192.33 104.266 191.394 105.472C190.458 106.678 189.552 106.243 189.552 106.243C189.552 106.243 189.656 108.815 190.83 110.249C190.83 110.249 192.139 110.643 194.514 110.078C195.972 109.732 198.006 107.853 198.833 105.891C200.587 101.739 200.634 98.0384 197.985 96.9877C197.659 95.0983 196.148 94.2856 194.441 93.9337C190.768 93.1779 188.394 95.471 185.569 95.2691C183.95 95.1553 183.645 96.3355 184.648 98.054Z" fill="#263238"/>
<path d="M198.041 97.6193L199.774 96.5427C199.479 96.0664 198.848 95.9163 198.372 96.2114C197.891 96.5064 197.746 97.1379 198.041 97.6142V97.6193Z" fill="#263238"/>
<path d="M164.001 125.97C164.911 126.374 175.61 134.288 177.281 133.367C178.946 132.445 187.508 122.44 187.508 122.44C189.991 118.319 187.508 114.934 187.508 114.934C187.508 114.934 184.761 115.441 183.328 117.615C181.895 119.789 175.687 127.575 175.687 127.575C174.156 126.808 172.63 126.027 171.109 125.24C169.857 124.593 168.6 123.941 167.369 123.242C167.063 123.066 166.66 122.9 166.406 122.647C165.801 122.046 165.905 120.597 165.915 119.81C165.92 119.443 165.925 119.075 165.967 118.708C166.018 118.257 166.106 117.155 165.294 117.507C165.139 117.574 165.01 117.698 164.906 117.833C164.777 117.998 164.679 118.185 164.616 118.387C164.461 118.863 164.513 119.386 164.373 119.862C164.353 119.934 164.327 120.002 164.275 120.053C164.208 120.116 164.109 120.136 164.022 120.131C162.842 120.095 161.725 118.444 161.187 117.564C160.943 117.17 160.711 116.735 160.292 116.544C159.645 116.244 158.869 116.673 158.455 117.253C157.927 117.993 157.767 118.951 157.871 119.852C158.015 121.104 158.496 122.259 159.407 123.113C160.793 124.402 162.294 125.214 164.001 125.975V125.97Z" fill="#E9A5A5"/>
<path d="M188.377 114.608C187.198 114.742 185.237 114.83 183.313 117.01C181.068 119.556 178.108 123.708 178.108 123.708C178.108 123.708 178.91 127.735 183.282 128.584C183.282 128.584 187.332 124.432 188.455 122.15C189.583 119.862 189.759 116.15 188.372 114.608H188.377Z" fill="#27DEBF"/>
<path d="M188.377 114.608C187.198 114.742 185.237 114.83 183.313 117.01C181.068 119.556 178.108 123.708 178.108 123.708C178.108 123.708 178.91 127.735 183.282 128.584C183.282 128.584 187.332 124.432 188.455 122.15C189.583 119.862 189.759 116.15 188.372 114.608H188.377Z" fill="#E6F1F1"/>
<path d="M58.3025 77.3091L50.9505 81.3968C50.5269 81.6313 50.1846 81.3968 50.1846 80.8384V64.9232C50.189 64.6473 50.2607 64.3763 50.3937 64.1319C50.5267 63.8875 50.7174 63.6766 50.9505 63.516L58.3025 59.4283C58.7261 59.1937 59.0684 59.4283 59.0684 59.9867V75.9019C59.064 76.1777 58.9923 76.4487 58.8593 76.6931C58.7263 76.9375 58.5356 77.1485 58.3025 77.3091Z" fill="#FAFAFA"/>
<path d="M70.2498 70.6686L62.892 74.7507C62.4742 74.9852 62.1318 74.7507 62.1318 74.1922V58.2826C62.1365 58.0082 62.2077 57.7386 62.3397 57.4953C62.4716 57.252 62.6607 57.0416 62.892 56.881L70.2498 52.7989C70.6675 52.5643 71.0099 52.7989 71.0099 53.3573V69.2725C71.0034 69.5458 70.9314 69.814 70.7996 70.0561C70.6677 70.2983 70.4796 70.5079 70.2498 70.6686Z" fill="#FAFAFA"/>
<path d="M82.1912 64.034L74.8392 68.1217C74.4156 68.3562 74.0732 68.1217 74.0732 67.5633V51.6481C74.0777 51.3722 74.1493 51.1012 74.2824 50.8568C74.4154 50.6124 74.6061 50.4014 74.8392 50.2408L82.1912 46.1587C82.6147 45.9242 82.9571 46.1587 82.9571 46.7172V62.6324C82.9517 62.9073 82.8797 63.1772 82.7467 63.4205C82.6137 63.6639 82.4235 63.8739 82.1912 64.034Z" fill="#FAFAFA"/>
<path d="M94.1277 57.4019L86.7757 61.4896C86.3521 61.7241 86.0098 61.4896 86.0098 60.9312V45.016C86.0142 44.7401 86.0859 44.4691 86.2189 44.2247C86.3519 43.9803 86.5426 43.7693 86.7757 43.6087L94.1277 39.521C94.5513 39.2865 94.8936 39.521 94.8936 40.0795V55.9947C94.8892 56.2705 94.8175 56.5415 94.6845 56.7859C94.5515 57.0303 94.3608 57.2413 94.1277 57.4019Z" fill="#FAFAFA"/>
<path d="M102.975 59.6116L46.0635 91.103C45.9242 91.1927 45.8084 91.3119 45.7247 91.4513C45.6411 91.5908 45.5919 91.7467 45.5811 91.9072V98.3043C45.5909 98.465 45.6402 98.6211 45.725 98.76C45.8098 98.8989 45.9276 99.0165 46.0689 99.1033L46.9899 99.6027C47.1407 99.6741 47.3067 99.7112 47.475 99.7112C47.6432 99.7112 47.8092 99.6741 47.9601 99.6027L104.866 68.1113C105.007 68.0242 105.124 67.9064 105.207 67.7675C105.291 67.6286 105.34 67.4726 105.348 67.3123V60.91C105.341 60.7495 105.293 60.5932 105.209 60.4542C105.125 60.3151 105.007 60.1974 104.866 60.111L103.94 59.6116C103.789 59.5411 103.624 59.5044 103.457 59.5044C103.29 59.5044 103.125 59.5411 102.975 59.6116Z" fill="#3C478E"/>
<path d="M76.1784 81.8089C76.1902 81.8007 76.2044 81.7963 76.219 81.7963C76.2336 81.7963 76.2478 81.8007 76.2596 81.8089C76.2718 81.8193 76.2813 81.8323 76.2873 81.8468C76.2934 81.8614 76.2958 81.8771 76.2944 81.8927V82.278C76.293 82.321 76.2811 82.3631 76.2596 82.4008C76.2422 82.4376 76.2139 82.4687 76.1784 82.4902L74.3215 83.5233C74.3097 83.5315 74.2955 83.5359 74.2809 83.5359C74.2663 83.5359 74.2521 83.5315 74.2403 83.5233C74.2281 83.5129 74.2186 83.4999 74.2125 83.4854C74.2065 83.4708 74.2041 83.4551 74.2055 83.4395V79.927C74.2062 79.8839 74.2181 79.8416 74.2403 79.8041C74.256 79.7663 74.2846 79.7348 74.3215 79.7148L76.1493 78.6985C76.1599 78.6898 76.1732 78.6851 76.1871 78.6851C76.2009 78.6851 76.2143 78.6898 76.2248 78.6985C76.237 78.7088 76.2465 78.7218 76.2525 78.7364C76.2585 78.7509 76.261 78.7666 76.2596 78.7822V79.1675C76.2589 79.2106 76.2469 79.2529 76.2248 79.2904C76.211 79.3276 76.1843 79.3591 76.1493 79.3797L74.7915 80.1336V80.9992L76.0623 80.29C76.0741 80.2818 76.0883 80.2774 76.1029 80.2774C76.1175 80.2774 76.1317 80.2818 76.1435 80.29C76.1557 80.3004 76.1652 80.3134 76.1713 80.3279C76.1773 80.3424 76.1797 80.3581 76.1784 80.3737V80.7591C76.1776 80.8022 76.1657 80.8444 76.1435 80.8819C76.1261 80.9187 76.0979 80.9498 76.0623 80.9713L74.7915 81.6805V82.5851L76.1784 81.8089Z" fill="white"/>
<path d="M78.0413 77.6602C78.3953 77.4648 78.6622 77.4201 78.8479 77.5262C79.0336 77.6323 79.1206 77.878 79.1206 78.2522C79.1216 78.5095 79.0744 78.7648 78.9813 79.0061C78.8843 79.2447 78.7427 79.4643 78.5635 79.6538L79.1438 80.6758C79.1465 80.6924 79.1465 80.7094 79.1438 80.726C79.1516 80.7591 79.1516 80.7934 79.1438 80.8265C79.1289 80.8553 79.107 80.8802 79.08 80.8991L78.7202 81.1002C78.6622 81.1002 78.6216 81.1337 78.5926 81.1002C78.5682 81.0823 78.5484 81.0594 78.5345 81.0331L77.9833 80.0782L77.403 80.3909V81.6586C77.4011 81.7009 77.3913 81.7425 77.374 81.7814C77.3547 81.8155 77.3268 81.8444 77.2928 81.8652L76.9446 82.0607C76.9341 82.0693 76.9207 82.0741 76.9069 82.0741C76.8931 82.0741 76.8797 82.0693 76.8692 82.0607C76.857 82.0503 76.8475 82.0373 76.8415 82.0227C76.8354 82.0082 76.833 81.9925 76.8344 81.9769V78.4588C76.8358 78.4158 76.8477 78.3737 76.8692 78.3359C76.8845 78.301 76.9109 78.2717 76.9446 78.2522L78.0413 77.6602ZM77.403 79.7264L78.0181 79.3858C78.1687 79.3037 78.3009 79.1936 78.4069 79.0619C78.5072 78.9166 78.5579 78.7448 78.5519 78.5705C78.5519 78.3639 78.4997 78.2577 78.4069 78.241C78.268 78.2357 78.1312 78.275 78.0181 78.3527L77.403 78.6933V79.7264Z" fill="white"/>
<path d="M79.7883 80.4948C79.7765 80.503 79.7623 80.5074 79.7477 80.5074C79.7331 80.5074 79.7189 80.503 79.7071 80.4948C79.6949 80.4844 79.6854 80.4715 79.6793 80.4569C79.6733 80.4424 79.6709 80.4267 79.6723 80.411V76.8985C79.673 76.8554 79.6849 76.8132 79.7071 76.7757C79.7248 76.7391 79.7529 76.7081 79.7883 76.6863L80.1307 76.4965C80.1425 76.4883 80.1567 76.4839 80.1713 76.4839C80.1859 76.4839 80.2001 76.4883 80.2119 76.4965C80.2241 76.5068 80.2336 76.5198 80.2396 76.5344C80.2457 76.5489 80.2481 76.5646 80.2467 76.5802V80.0927C80.246 80.1359 80.234 80.1781 80.2119 80.2156C80.1926 80.2512 80.1648 80.2818 80.1307 80.3049L79.7883 80.4948Z" fill="white"/>
<path d="M82.8344 74.9944C82.8449 74.9857 82.8583 74.981 82.8721 74.981C82.8859 74.981 82.8993 74.9857 82.9098 74.9944C82.922 75.0047 82.9315 75.0177 82.9375 75.0323C82.9436 75.0468 82.946 75.0625 82.9446 75.0781V75.4634C82.9439 75.5066 82.9319 75.5488 82.9098 75.5863C82.896 75.6235 82.8694 75.655 82.8344 75.6756L81.4766 76.4239V77.485L82.7473 76.7757C82.7592 76.7676 82.7734 76.7632 82.7879 76.7632C82.8025 76.7632 82.8167 76.7676 82.8286 76.7757C82.8408 76.7861 82.8502 76.7991 82.8563 76.8137C82.8623 76.8282 82.8648 76.8439 82.8634 76.8595V77.2504C82.8627 77.2918 82.8507 77.3322 82.8286 77.3677C82.8109 77.4043 82.7827 77.4353 82.7473 77.457L81.4766 78.1606V79.4059C81.4846 79.4465 81.4846 79.4882 81.4766 79.5288C81.4589 79.5654 81.4307 79.5964 81.3953 79.6181L81.053 79.808C81.0411 79.8162 81.0269 79.8206 81.0123 79.8206C80.9978 79.8206 80.9836 79.8162 80.9717 79.808C80.9595 79.7976 80.95 79.7846 80.944 79.7701C80.9379 79.7556 80.9355 79.7398 80.9369 79.7242V76.2229C80.9383 76.1799 80.9502 76.1378 80.9717 76.1C80.9891 76.0633 81.0174 76.0322 81.053 76.0107L82.8344 74.9944Z" fill="white"/>
<path d="M85.6953 73.432C85.7071 73.4238 85.7213 73.4194 85.7359 73.4194C85.7505 73.4194 85.7647 73.4238 85.7765 73.432C85.7971 73.4552 85.8076 73.4853 85.8055 73.5158C85.8087 73.5343 85.8087 73.5531 85.8055 73.5716L84.8017 76.3973V77.5979C84.801 77.6392 84.789 77.6797 84.7669 77.7152C84.7492 77.7518 84.721 77.7828 84.6856 77.8045L84.3491 77.9944C84.3372 78.0026 84.323 78.007 84.3084 78.007C84.2939 78.007 84.2797 78.0026 84.2678 77.9944C84.2556 77.984 84.2461 77.971 84.2401 77.9565C84.2341 77.9419 84.2316 77.9262 84.233 77.9106V76.7156L83.2291 75.0012C83.2257 74.9884 83.2257 74.9749 83.2291 74.9621C83.229 74.9189 83.2411 74.8764 83.264 74.8393C83.2817 74.8026 83.3098 74.7716 83.3452 74.7499L83.6643 74.5712C83.6839 74.561 83.7059 74.5556 83.7282 74.5556C83.7505 74.5556 83.7724 74.561 83.792 74.5712C83.8129 74.585 83.829 74.6044 83.8384 74.6271L84.5289 75.783L85.2137 73.862C85.2271 73.825 85.2446 73.7894 85.2659 73.7559C85.2941 73.7017 85.3385 73.657 85.3935 73.6275L85.6953 73.432Z" fill="white"/>
<path d="M72.3773 83.5627L73.091 80.5751C73.1033 80.5349 73.1188 80.4957 73.1374 80.4578C73.1569 80.4173 73.1895 80.384 73.2303 80.3629L73.5552 80.1786C73.5671 80.1704 73.5813 80.166 73.5958 80.166C73.6104 80.166 73.6246 80.1704 73.6365 80.1786C73.6486 80.189 73.6581 80.202 73.6642 80.2165C73.6702 80.2311 73.6727 80.2467 73.6713 80.2624V80.3014L72.7196 84.2495C72.7073 84.3092 72.6878 84.3673 72.6616 84.4226C72.64 84.4649 72.6056 84.5 72.563 84.5232L72.2206 84.713C72.1742 84.7409 72.1452 84.7409 72.122 84.713C72.0911 84.6839 72.069 84.6472 72.0581 84.6069L71.1123 81.7143V81.6808C71.113 81.6377 71.125 81.5954 71.1471 81.5579C71.1648 81.5213 71.193 81.4903 71.2284 81.4686L71.5533 81.2899C71.5939 81.2899 71.6229 81.2619 71.6461 81.2899C71.6666 81.3064 71.6826 81.3275 71.6926 81.3513L72.3773 83.5627Z" fill="white"/>
<path d="M122.175 109.287C122.2 108.642 122.301 108.002 122.476 107.38C122.649 106.737 122.901 106.118 123.227 105.538C123.552 104.946 123.948 104.397 124.408 103.903C124.873 103.395 125.414 102.963 126.011 102.62C126.493 102.313 127.038 102.119 127.606 102.054C128.021 102.005 128.439 102.098 128.794 102.319C129.128 102.561 129.379 102.902 129.51 103.294C129.698 103.792 129.802 104.317 129.817 104.85C129.817 105.316 129.817 105.803 129.817 106.283C129.817 106.764 129.817 107.28 129.817 107.717C129.742 109.728 128.947 111.644 127.578 113.116C127.112 113.616 126.574 114.044 125.982 114.385C125.496 114.693 124.949 114.891 124.379 114.965C123.967 115.018 123.549 114.924 123.198 114.7C122.85 114.458 122.588 114.111 122.447 113.711C122.257 113.214 122.155 112.687 122.146 112.155C122.146 111.718 122.146 111.237 122.146 110.721C122.146 110.205 122.154 109.768 122.175 109.287ZM127.571 109.008C127.571 108.807 127.571 108.585 127.571 108.334C127.571 108.083 127.571 107.846 127.571 107.617C127.571 107.387 127.571 107.129 127.571 106.9C127.571 106.671 127.571 106.463 127.571 106.276C127.555 106.045 127.512 105.816 127.442 105.595C127.384 105.43 127.283 105.284 127.148 105.172C127.011 105.069 126.839 105.023 126.669 105.043C126.433 105.066 126.207 105.148 126.011 105.28C125.761 105.418 125.536 105.597 125.345 105.81C125.158 106.013 125 106.239 124.873 106.484C124.744 106.727 124.645 106.984 124.579 107.251C124.508 107.523 124.465 107.802 124.451 108.083C124.451 108.276 124.451 108.499 124.415 108.735C124.379 108.972 124.415 109.216 124.415 109.452C124.415 109.689 124.415 109.954 124.415 110.169C124.415 110.384 124.415 110.621 124.451 110.807C124.442 111.012 124.475 111.217 124.548 111.41C124.62 111.602 124.731 111.777 124.873 111.926C125.123 112.141 125.503 112.105 126.011 111.811C126.499 111.534 126.893 111.117 127.141 110.614C127.384 110.11 127.53 109.565 127.571 109.008Z" fill="#FAFAFA"/>
<path d="M137.453 96.1693C137.488 96.1452 137.529 96.1323 137.571 96.1323C137.613 96.1323 137.655 96.1452 137.689 96.1693C137.724 96.2022 137.75 96.2426 137.766 96.2874C137.782 96.3321 137.788 96.3801 137.782 96.4273V98.1695C137.781 98.2971 137.749 98.4226 137.689 98.5351C137.636 98.6431 137.554 98.7347 137.453 98.8004L135.306 100.055V108.479C135.305 108.606 135.274 108.732 135.213 108.844C135.164 108.955 135.082 109.048 134.977 109.11L133.367 110.042C133.334 110.066 133.294 110.079 133.253 110.079C133.212 110.079 133.171 110.066 133.138 110.042C133.101 110.011 133.073 109.971 133.055 109.926C133.038 109.88 133.032 109.832 133.038 109.784V101.36L130.891 102.614C130.857 102.639 130.816 102.653 130.773 102.653C130.731 102.653 130.69 102.639 130.655 102.614C130.62 102.584 130.592 102.545 130.575 102.501C130.557 102.457 130.551 102.41 130.555 102.363V100.621C130.559 100.491 130.593 100.363 130.655 100.249C130.709 100.14 130.79 100.049 130.891 99.9833L137.453 96.1693Z" fill="#FAFAFA"/>
<path d="M142.705 93.106C143.148 92.8384 143.632 92.6447 144.136 92.5324C144.493 92.4412 144.87 92.4767 145.203 92.6328C145.533 92.8047 145.788 93.0934 145.918 93.4429C146.092 93.9374 146.173 94.4602 146.154 94.9843C146.158 95.6016 146.079 96.2165 145.918 96.8125C145.754 97.3736 145.513 97.9092 145.203 98.404C144.594 99.4049 143.739 100.232 142.72 100.806L141.153 101.716V105.071C141.149 105.2 141.114 105.325 141.052 105.437C141.003 105.548 140.921 105.641 140.816 105.702L139.206 106.634C139.171 106.658 139.13 106.671 139.088 106.671C139.046 106.671 139.005 106.658 138.97 106.634C138.936 106.601 138.909 106.561 138.893 106.516C138.877 106.471 138.872 106.424 138.877 106.376V95.7801C138.878 95.6502 138.91 95.5224 138.97 95.4073C139.025 95.3004 139.106 95.2092 139.206 95.142L142.705 93.106ZM141.138 99.1568L142.648 98.2822C142.989 98.0853 143.28 97.8131 143.5 97.4864C143.731 97.1338 143.849 96.7182 143.836 96.2963C143.836 95.8374 143.729 95.5794 143.5 95.5005C143.352 95.4723 143.201 95.4743 143.055 95.5064C142.908 95.5384 142.77 95.5998 142.648 95.6869L141.138 96.5615V99.1568Z" fill="#FAFAFA"/>
</g>
<defs>
<clipPath id="clip0_3403_10910">
<rect width="239" height="233" fill="white" transform="translate(0.5)"/>
</clipPath>
</defs>
</svg>
