<svg id="Layer_1" data-name="Layer 1" xmlns="http://www.w3.org/2000/svg" viewBox="0 0 165 100"><title>unlock-device</title><path d="M159.57,65.94l-3.29.07-1.67,0h-1.79V63h3.44c1.11,0,2.21,0,3.32,0h.07v.07c0,.48,0,.95,0,1.42Zm0,0,0-1.41,0-1.39.07.07c-1.11,0-2.21,0-3.32,0l-3.32,0,.13-.13v2.8l-.12-.11h1.65l1.63,0Z" fill="#ebebeb"/><path d="M155.87,69.47l-3.29.07-1.67,0c-.56,0-1.12,0-1.68,0h-.11v-3h.12l3.32,0c1.11,0,2.22,0,3.32,0H156v.07c0,.47,0,1,0,1.41Zm0,0,0-1.42c0-.46,0-.92,0-1.38l.07.07c-1.11,0-2.22,0-3.32,0h-3.32l.12-.12v2.8l-.11-.11h1.64l1.65,0Z" fill="#ebebeb"/><path d="M163.27,69.47l-3.29.07-1.67,0c-.56,0-1.12,0-1.68,0h-.11v-3h.12l3.32,0c1.11,0,2.22,0,3.32,0h.07v.07c0,.47,0,1,0,1.41Zm0,0,0-1.42c0-.46,0-.92,0-1.38l.07.07c-1.1,0-2.21,0-3.32,0h-3.32l.13-.12v2.8l-.11-.11h1.64l1.65,0Z" fill="#ebebeb"/><path d="M76.22,18.9,72.93,19l-1.67,0c-.56,0-1.12,0-1.68,0h-.09V18.9l0-2.79V16h.13l3.32,0c1.1,0,2.21,0,3.31,0h.07v.07c0,.47,0,.94,0,1.41Zm0,0,0-1.41c0-.46,0-.93,0-1.38l.07.07c-1.1,0-2.21,0-3.32,0H69.58l.13-.12V18.9l-.12-.11h1.65l1.65,0Z" fill="#ebebeb"/><path d="M72.52,22.43l-3.29.07-1.67,0H65.77v-3h.12l3.32,0c1.11,0,2.21,0,3.32,0h.07v.06c0,.48,0,.95,0,1.42Zm0,0,0-1.41c0-.47,0-.93,0-1.39l.07.07c-1.11,0-2.21,0-3.32,0l-3.32,0,.13-.13,0,2.8-.11-.11h1.64l1.65,0Z" fill="#ebebeb"/><path d="M79.93,22.43l-3.29.07-1.67,0H73.18v-.11l0-2.8v-.12h.13l3.32,0c1.11,0,2.21,0,3.32,0H80v.06c0,.48,0,.95,0,1.42Zm0,0,0-1.41c0-.47,0-.93,0-1.39l.07.07c-1.11,0-2.22,0-3.32,0l-3.32,0,.12-.13v2.8l-.11-.11h1.64l1.65,0Z" fill="#ebebeb"/><path d="M28.13,47.85l-3.29.07-1.67,0H21.38v-3h3.44c1.11,0,2.22,0,3.32,0h.07v.07c0,.48,0,1,0,1.41Zm0,0,0-1.41c0-.47,0-.93,0-1.39l.07.07c-1.11,0-2.22,0-3.32,0l-3.32,0,.12-.13v2.8l-.11-.11h1.64l1.65,0Z" fill="#ebebeb"/><path d="M159.5,5.48l-3.28.07-1.67,0h-1.79v-3h3.44c1.11,0,2.21,0,3.32,0h.07v.07c0,.48,0,.95,0,1.41Zm0,0,0-1.41c0-.47,0-.93,0-1.39l.07.07c-1.11,0-2.21,0-3.32,0l-3.32,0,.13-.13,0,2.8-.11-.11h1.64l1.65,0Z" fill="#ebebeb"/><path d="M8.41,79l-3.29.07-1.67,0H1.66v-3H5.09c1.11,0,2.21,0,3.32,0h.07v.07c0,.47,0,1,0,1.41Zm0,0,0-1.41c0-.46,0-.92,0-1.38l.07.07c-1.11,0-2.21,0-3.32,0l-3.32,0,.13-.12,0,2.8L1.77,79H3.41l1.65,0Z" fill="#ebebeb"/><path d="M12.11,82.57l-3.28.06-1.67,0c-.56,0-1.12,0-1.68,0H5.37v-.12l0-2.79v-.13h.13l3.32,0c1.1,0,2.21,0,3.32,0h.06v.06c0,.48,0,.95,0,1.42Zm0,0,0-1.41c0-.47,0-.93,0-1.39l.07.07c-1.11,0-2.21,0-3.32,0l-3.32,0,.13-.13,0,2.8-.11-.11H7.12l1.65,0Z" fill="#ebebeb"/><path d="M8.41,5.48l-3.29.07-1.67,0c-.56,0-1.12,0-1.68,0H1.66v-3h.13l3.32,0c1.1,0,2.21,0,3.31,0h.07v.07c0,.47,0,.94,0,1.41Zm0,0,0-1.41c0-.47,0-.93,0-1.38l.07.06-3.32,0H1.77l.13-.12,0,2.79-.11-.09H3.41l1.65,0Z" fill="#ebebeb"/><path d="M153.14,97.44h-.25V66l0,0,6.68-9.09v-17h.25V57l0,0-6.67,9.09Z" fill="#ebebeb"/><path d="M159.71,40a.72.72,0,0,1-.4-.12.73.73,0,0,1-.27-.33.72.72,0,0,1,0-.41.74.74,0,0,1,.57-.57.7.7,0,0,1,.74.31.72.72,0,0,1,.12.4.72.72,0,0,1-.72.72Zm0-1.19a.5.5,0,0,0-.26.08.46.46,0,0,0-.18.21.49.49,0,0,0,0,.27.38.38,0,0,0,.13.24.41.41,0,0,0,.24.13.42.42,0,0,0,.27,0,.39.39,0,0,0,.21-.17.5.5,0,0,0,.08-.26.47.47,0,0,0-.14-.33A.44.44,0,0,0,159.71,38.77Z" fill="#ebebeb"/><path d="M154.86,97.44h-.25V67.09l0,0L161.31,58V46.07h.25v12l0,0-6.68,9.09Z" fill="#ebebeb"/><path d="M161.44,46.21a.75.75,0,0,1-.4-.12.72.72,0,0,1-.31-.74.74.74,0,0,1,.57-.57.72.72,0,0,1,.41,0,.73.73,0,0,1,.33.27.72.72,0,0,1,.12.4.72.72,0,0,1-.72.72Zm0-1.19a.5.5,0,0,0-.27.08.51.51,0,0,0-.17.21.63.63,0,0,0,0,.27.51.51,0,0,0,.13.24.47.47,0,0,0,.24.13.45.45,0,0,0,.28,0,.43.43,0,0,0,.21-.17.5.5,0,0,0,.08-.26.48.48,0,0,0-.47-.47Z" fill="#ebebeb"/><path d="M151.47,55.84h-.25v41.6h.25Z" fill="#ebebeb"/><path d="M151.35,56a.68.68,0,0,1-.4-.12.7.7,0,0,1-.27-.32.75.75,0,0,1,0-.42.79.79,0,0,1,.2-.37.73.73,0,0,1,.37-.19.72.72,0,0,1,.41,0,.67.67,0,0,1,.33.27.7.7,0,0,1,.12.4.72.72,0,0,1-.72.71Zm0-1.18a.38.38,0,0,0-.26.08.46.46,0,0,0-.18.21.61.61,0,0,0,0,.27.56.56,0,0,0,.13.24.47.47,0,0,0,.24.13.45.45,0,0,0,.28,0,.43.43,0,0,0,.21-.17.5.5,0,0,0,.08-.26.48.48,0,0,0-.14-.34A.51.51,0,0,0,151.35,54.78Z" fill="#ebebeb"/><path d="M149.87,97.44h-.25V76.33l-4.55-8.56V52.4h.25V67.71l4.55,8.56Z" fill="#ebebeb"/><path d="M145.19,52.52a.72.72,0,0,1-.4-.12.76.76,0,0,1-.27-.32.75.75,0,0,1,0-.42.79.79,0,0,1,.2-.37.73.73,0,0,1,.37-.19.76.76,0,0,1,.42,0,.73.73,0,0,1,.44.67.86.86,0,0,1,0,.27.78.78,0,0,1-.16.24,1,1,0,0,1-.24.15A.62.62,0,0,1,145.19,52.52Zm0-1.18a.4.4,0,0,0-.26.08.46.46,0,0,0-.18.21.49.49,0,0,0,0,.27.41.41,0,0,0,.13.24.44.44,0,0,0,.24.13.42.42,0,0,0,.27,0,.39.39,0,0,0,.21-.17.5.5,0,0,0,.08-.26.48.48,0,0,0-.14-.34A.51.51,0,0,0,145.19,51.34Z" fill="#ebebeb"/><path d="M148.28,97.44H148V77.25l-5.36-9.46V57.65h.25V67.72l5.36,9.46Z" fill="#ebebeb"/><path d="M142.79,57.77a.72.72,0,0,1-.4-.12.68.68,0,0,1-.26-.32.75.75,0,0,1,0-.42.72.72,0,0,1,.2-.36.72.72,0,0,1,.79-.16.74.74,0,0,1,.32.26.72.72,0,0,1,.12.4.68.68,0,0,1-.21.51A.69.69,0,0,1,142.79,57.77Zm0-1.18a.42.42,0,0,0-.26.08.39.39,0,0,0-.17.21.42.42,0,0,0,0,.27.48.48,0,0,0,.37.37.42.42,0,0,0,.27,0,.62.62,0,0,0,.22-.17.5.5,0,0,0,.07-.27.57.57,0,0,0,0-.18l-.1-.15-.16-.1A.52.52,0,0,0,142.79,56.59Z" fill="#ebebeb"/><path d="M12.16,97.44h-.25V81.07L5.21,72V62.32h.25v9.54L12.16,81Z" fill="#ebebeb"/><path d="M10.43,97.44h-.25V82.17l-6.7-9.12V68.57h.25V73l6.7,9.12Z" fill="#ebebeb"/><path d="M13.82,70.84h-.25v26.6h.25Z" fill="#ebebeb"/><path d="M13.7,71a.73.73,0,0,1-.41-.12.63.63,0,0,1-.26-.32.67.67,0,0,1,0-.42.63.63,0,0,1,.19-.36.72.72,0,0,1,.79-.16.65.65,0,0,1,.32.27.68.68,0,0,1,.13.4.72.72,0,0,1-.22.5A.67.67,0,0,1,13.7,71Zm0-1.18a.5.5,0,0,0-.27.07.52.52,0,0,0-.17.22.42.42,0,0,0,0,.27.47.47,0,0,0,.13.24.51.51,0,0,0,.24.13.42.42,0,0,0,.27,0,.39.39,0,0,0,.21-.17.42.42,0,0,0,.08-.26.43.43,0,0,0-.13-.33A.47.47,0,0,0,13.7,69.78Z" fill="#ebebeb"/><path d="M15.42,97.44h-.25V83.74l4.54-8.53V59.9H20V75.27l0,0-4.53,8.53Z" fill="#ebebeb"/><path d="M19.85,60a.72.72,0,0,1-.4-.12.63.63,0,0,1-.26-.32.75.75,0,0,1-.05-.42.72.72,0,0,1,.2-.36.68.68,0,0,1,.37-.2.75.75,0,0,1,.42,0,.7.7,0,0,1,.32.27.72.72,0,0,1-.6,1.11Zm0-1.18a.48.48,0,0,0-.26.07.46.46,0,0,0-.17.22.42.42,0,0,0,0,.27.47.47,0,0,0,.13.24.51.51,0,0,0,.24.13.42.42,0,0,0,.27,0,.39.39,0,0,0,.21-.17.42.42,0,0,0,.08-.26.47.47,0,0,0-.13-.33A.48.48,0,0,0,19.85,58.84Z" fill="#ebebeb"/><path d="M17,97.44h-.25V84.68l0,0,5.35-9.43V65.15h.25V75.29l0,0L17,84.75Z" fill="#ebebeb"/><path d="M22.25,65.27a.72.72,0,0,1-.4-.12.71.71,0,0,1-.27-.32.72.72,0,0,1,0-.41.74.74,0,0,1,.57-.57.64.64,0,0,1,.41,0,.71.71,0,0,1,.33.26.72.72,0,0,1,.12.4.72.72,0,0,1-.72.72Zm0-1.18a.42.42,0,0,0-.26.08.46.46,0,0,0-.18.21.49.49,0,0,0,0,.27.41.41,0,0,0,.13.24.44.44,0,0,0,.24.13.42.42,0,0,0,.27,0,.51.51,0,0,0,.21-.17.5.5,0,0,0,.08-.27.47.47,0,0,0-.14-.33A.49.49,0,0,0,22.25,64.09Z" fill="#ebebeb"/><path d="M151.37,92.32H13.67v5h137.7Z" fill="#c7c7c7"/><path d="M95.94,92.32H69.1v2H95.94Z" fill="#a6a6a6"/><path d="M137.14,19.43H27.9V92.31H137.14Z" fill="#dbdbdb"/><path d="M136.35,20.32H28.69V91.43H136.35Z" fill="#263238"/><path d="M131.58,24.89H33.46v62h98.12Z" fill="#fff"/><path d="M131.58,24.89H33.46v2.39h98.12Z" fill="#455a64"/><path d="M35.71,26.08a.5.5,0,0,1-.08.26.45.45,0,0,1-.2.16.39.39,0,0,1-.26,0,.47.47,0,0,1-.24-.13.46.46,0,0,1-.12-.23.39.39,0,0,1,0-.26.45.45,0,0,1,.16-.2.5.5,0,0,1,.26-.08.33.33,0,0,1,.17,0,.38.38,0,0,1,.15.09,1.3,1.3,0,0,1,.1.15A.55.55,0,0,1,35.71,26.08Z" fill="#c7c7c7"/><path d="M37.56,26.08a.5.5,0,0,1-.08.26.45.45,0,0,1-.2.16.42.42,0,0,1-.27,0,.45.45,0,0,1-.23-.13.4.4,0,0,1-.12-.23.46.46,0,0,1,0-.26.55.55,0,0,1,.17-.2.5.5,0,0,1,.26-.08.38.38,0,0,1,.17,0,.36.36,0,0,1,.24.24A.38.38,0,0,1,37.56,26.08Z" fill="#fff"/><path d="M39.41,26.08a.5.5,0,0,1-.08.26.45.45,0,0,1-.2.16.42.42,0,0,1-.27,0,.41.41,0,0,1-.23-.13.4.4,0,0,1-.12-.23.46.46,0,0,1,0-.26.55.55,0,0,1,.17-.2.49.49,0,0,1,.25-.08.39.39,0,0,1,.18,0,.42.42,0,0,1,.14.09.44.44,0,0,1,.1.15A.38.38,0,0,1,39.41,26.08Z" fill="#2064dd"/><path d="M130,27.28H33.46V40.55H130Z" fill="#2064dd"/><path d="M131.58,27.28H130V80.07h1.54Z" fill="#dbdbdb"/><path d="M130.81,45.58a.41.41,0,0,1-.4-.4V28a.39.39,0,0,1,.12-.28.45.45,0,0,1,.28-.12.4.4,0,0,1,.28.12.39.39,0,0,1,.12.28v17.2a.41.41,0,0,1-.4.4Z" fill="#a6a6a6"/><path d="M125.78,29.85H105v2.77h20.78Z" fill="#fff"/><path d="M125.81,32.65H105V29.82h20.84ZM105,32.59h20.72V29.88H105Z" fill="#c7c7c7"/><path d="M125.81,29.82H123v2.83h2.83Z" fill="#455a64"/><path d="M125.27,32l-.25.19-.47-.62-.18-.23a.21.21,0,0,0,.1-.06.31.31,0,0,0,.13-.17l.19.25Z" fill="#fff"/><path d="M124.77,30.54a.62.62,0,0,0-.32-.23.65.65,0,0,0-.39,0,.72.72,0,0,0-.34.19.68.68,0,0,0-.16.73.62.62,0,0,0,.23.32.7.7,0,0,0,.37.14.73.73,0,0,0,.38-.08l.1-.06.14-.15a.64.64,0,0,0,.13-.42A.68.68,0,0,0,124.77,30.54Zm-.3.75-.1.06a.44.44,0,0,1-.23,0,.41.41,0,0,1-.21-.1.47.47,0,0,1-.12-.19.45.45,0,0,1,0-.23.41.41,0,0,1,.12-.2.42.42,0,0,1,.2-.1.36.36,0,0,1,.23,0,.38.38,0,0,1,.27.33.41.41,0,0,1,0,.22.37.37,0,0,1-.13.17Z" fill="#fff"/><path d="M105.73,30.4h-.15v1.68h.15Z" fill="#c7c7c7"/><path d="M101.33,29.85H44.8v2.77h56.53Z" fill="#fff"/><path d="M101.36,32.65H44.77V29.82h56.59Zm-56.53-.06H101.3V29.88H44.83Z" fill="#c7c7c7"/><path d="M45.52,30.4h-.14v1.68h.14Z" fill="#c7c7c7"/><path d="M39.56,32.18l-1-.93,1-1,.16.16-.84.8.83.77Z" fill="#fff"/><path d="M42,30.29l1,.93-1,1L41.85,32l.83-.8-.83-.77Z" fill="#fff"/><path d="M71.77,75.25H83V63.38H71.77Z" fill="#ebebeb"/><path d="M73.32,66A1.39,1.39,0,0,0,74,67.5a1.42,1.42,0,0,0,1.66-.24,1.34,1.34,0,0,0,.4-.79,1.39,1.39,0,0,0-.15-.87A1.4,1.4,0,0,0,75.3,65a1.47,1.47,0,0,0-.88-.11,1.39,1.39,0,0,0-.71.39A1.32,1.32,0,0,0,73.32,66Z" fill="#fff"/><path d="M83,72.7H71.78v2.55H83Z" fill="#dbdbdb"/><path d="M75.47,72.71H83l-3.75-4.61Z" fill="#c7c7c7"/><path d="M71.78,72.71h6.65l-3.33-3Z" fill="#dbdbdb"/><path d="M37.91,61h22V44.18h-22Z" fill="#ebebeb"/><path d="M40.1,47.87a2,2,0,0,0,.15,1.24,2.09,2.09,0,0,0,.87.92,2.05,2.05,0,0,0,1.24.21,2,2,0,0,0,1.69-1.69,2,2,0,0,0-.21-1.23,2.09,2.09,0,0,0-.92-.87,2.07,2.07,0,0,0-1.25-.15,2,2,0,0,0-1.57,1.57Z" fill="#fff"/><path d="M45.17,57.4H59.92l-7.37-9.07Z" fill="#c7c7c7"/><path d="M37.91,57.4H51l-6.54-5.91Z" fill="#dbdbdb"/><path d="M59.93,57.4h-22V61h22Z" fill="#dbdbdb"/><path d="M49.42,63.38H37.76v1H49.42Z" fill="#a6a6a6"/><path d="M69,65.65H37.76v1H69Z" fill="#ebebeb"/><path d="M69,67.8H37.76v1H69Z" fill="#ebebeb"/><path d="M69,70H37.76v1H69Z" fill="#ebebeb"/><path d="M69,72.11H37.76v1H69Z" fill="#ebebeb"/><path d="M69,74.26H37.76v1H69Z" fill="#ebebeb"/><path d="M98.88,44.18H86.73v1H98.88Z" fill="#a6a6a6"/><path d="M104.43,46.45H86.73v1h17.7Z" fill="#ebebeb"/><path d="M104.43,48.6H86.73v1h17.7Z" fill="#ebebeb"/><path d="M104.43,50.76H86.73v1h17.7Z" fill="#ebebeb"/><path d="M104.43,52.91H86.73v1h17.7Z" fill="#ebebeb"/><path d="M104.43,57.21H86.73v1h17.7Z" fill="#ebebeb"/><path d="M104.43,59.36H86.73v1h17.7Z" fill="#ebebeb"/><path d="M104.43,61.51H86.73v1h17.7Z" fill="#ebebeb"/><path d="M104.43,63.67H86.73v1h17.7Z" fill="#ebebeb"/><path d="M104.43,68H86.73v1h17.7Z" fill="#ebebeb"/><path d="M104.43,70.12H86.73v1h17.7Z" fill="#ebebeb"/><path d="M104.43,72.27H86.73v1h17.7Z" fill="#ebebeb"/><path d="M104.43,74.42H86.73v1h17.7Z" fill="#ebebeb"/><path d="M125.81,46.45h-17.7v1h17.7Z" fill="#ebebeb"/><path d="M125.81,48.6h-17.7v1h17.7Z" fill="#ebebeb"/><path d="M125.81,44.3h-17.7v1h17.7Z" fill="#ebebeb"/><path d="M125.81,50.76h-17.7v1h17.7Z" fill="#ebebeb"/><path d="M125.81,52.91h-17.7v1h17.7Z" fill="#ebebeb"/><path d="M125.81,55.06h-17.7v1h17.7Z" fill="#ebebeb"/><path d="M125.81,57.21h-17.7v1h17.7Z" fill="#ebebeb"/><path d="M125.81,61.51h-17.7v1h17.7Z" fill="#ebebeb"/><path d="M125.81,63.67h-17.7v1h17.7Z" fill="#ebebeb"/><path d="M125.81,65.82h-17.7v1h17.7Z" fill="#ebebeb"/><path d="M125.81,68h-17.7v1h17.7Z" fill="#ebebeb"/><path d="M125.81,70.12h-17.7v1h17.7Z" fill="#ebebeb"/><path d="M75,44.18H63.35V46.8H75Z" fill="#a6a6a6"/><path d="M83,48.6H63.35v1H83Z" fill="#ebebeb"/><path d="M83,50.76H63.35v1H83Z" fill="#ebebeb"/><path d="M83,52.91H63.35v1H83Z" fill="#ebebeb"/><path d="M83,55.06H63.35v1H83Z" fill="#ebebeb"/><path d="M83,57.92H63.35v1H83Z" fill="#ebebeb"/><path d="M83,60.07H63.35v1H83Z" fill="#ebebeb"/><path d="M131.58,24.89H33.46v62h98.12Z" fill="#fff" opacity="0.7" style="isolation:isolate"/><path d="M64.65,58h2.28l1.33-1.48,1.81,2,1.8-1.91,1.82,2,1.77-1.93c.52.58,1,1.11,1.44,1.56a1.68,1.68,0,0,0,1,.45c.95.06,1.91,0,2.9,0,0,.27,0,.43,0,.59,0,1,0,1,1,1s2.11,0,3.17,0a1.11,1.11,0,0,1,1,.53,8.64,8.64,0,0,0,8.6,3.73,7.71,7.71,0,0,0,6.67-5.61A7.91,7.91,0,0,0,99,50.49,8.61,8.61,0,0,0,85.9,51.61a.92.92,0,0,1-.92.48c-.88-.05-1.78,0-2.67-.06-1.49,0-1.49,0-1.68,1.43-.3,0-.56,0-.83,0-3.45-.05-12.63-.28-15.64-.36L62,55.59Zm34.59.33a3.37,3.37,0,0,1-1.81.89,3.59,3.59,0,0,1-2-.25,3.71,3.71,0,0,1-1.59-1.31,3.46,3.46,0,0,1-.6-1.93,3.26,3.26,0,0,1,.59-1.89,3.33,3.33,0,0,1,1.59-1.22,3.62,3.62,0,0,1,2-.14,3.69,3.69,0,0,1,1.81,1,3.53,3.53,0,0,1,.77,1.14,3.36,3.36,0,0,1,.28,1.32,3.27,3.27,0,0,1-.27,1.31,3.33,3.33,0,0,1-.77,1.09Z" fill="#546ee7"/><path d="M80,55.68l-15.46-.55a.52.52,0,0,1-.33-.14.42.42,0,0,1-.13-.33.43.43,0,0,1,.47-.44L80,54.77a.58.58,0,0,1,.18,0,.65.65,0,0,1,.15.1.54.54,0,0,1,.1.16.5.5,0,0,1,0,.34.56.56,0,0,1-.1.15.51.51,0,0,1-.16.09A.52.52,0,0,1,80,55.68Z" opacity="0.3" style="isolation:isolate"/><path d="M80.71,56.05H80l-2,0-6.53-.13c-2.55-.06-4.86-.14-6.52-.22l-2-.1-.53,0h0l.53,0,2,.07c1.67.07,4,.13,6.53.2L78,56,80,56l.53,0h.2Z" fill="#263238"/><path d="M80.89,59.43s-.09-1.41-.15-3.16-.09-3.16-.07-3.16.1,1.41.16,3.16S80.91,59.44,80.89,59.43Z" fill="#263238"/><path d="M100.48,59.73l0-.12a3.48,3.48,0,0,1,.13-.34c0-.07.06-.16.1-.25s0-.2.08-.31.07-.24.1-.37a3,3,0,0,0,.08-.43,7.24,7.24,0,0,0,0-2.23,7.77,7.77,0,0,0-.95-2.83l-.21-.37-.25-.36a3.07,3.07,0,0,0-.27-.36l-.3-.34-.15-.18-.17-.16-.35-.34c-.12-.11-.25-.2-.38-.31a4,4,0,0,0-.39-.29,7.08,7.08,0,0,0-.88-.53l-.46-.23-.5-.2-.25-.1L95.3,49c-.17,0-.34-.11-.52-.15a8.12,8.12,0,0,0-1.1-.17l-.28,0h-.85l-.57.05-.29,0-.28.06a8.92,8.92,0,0,0-1.13.29l-.55.22-.14.06-.13.07-.27.13-.26.13-.26.16-.26.17-.12.08-.12.09-.47.38-.44.43a7.29,7.29,0,0,0-2,4.4c0,.2,0,.41,0,.61a4,4,0,0,0,0,.6v.15l0,.15,0,.3,0,.3.07.29.07.29,0,.15,0,.14c.06.18.12.37.19.56a10.17,10.17,0,0,0,.51,1l.15.25c0,.08.11.16.16.25l.33.46.37.44.09.1.1.1.21.2a8.28,8.28,0,0,0,.84.71l.46.31.22.14.24.13.47.24a4.89,4.89,0,0,0,.48.2,6.88,6.88,0,0,0,1,.32,3.88,3.88,0,0,0,.49.11l.48.09.47,0,.24,0h.69c.15,0,.3,0,.44,0l.44,0L95,64a7.91,7.91,0,0,0,2.77-1.13,7,7,0,0,0,1.65-1.5c.1-.11.19-.22.28-.34l.21-.32c.06-.1.13-.18.18-.26s.08-.17.12-.24l.18-.32.06-.11a.61.61,0,0,0,0,.11c0,.08-.1.18-.17.33l-.12.24c0,.09-.12.17-.18.27l-.21.31a3,3,0,0,1-.27.35,7,7,0,0,1-1.65,1.5A7.75,7.75,0,0,1,95.05,64l-.43.08-.43,0a3.42,3.42,0,0,1-.45,0H93l-.23,0-.48-.05L91.84,64l-.49-.11c-.33-.09-.66-.2-1-.32l-.49-.2-.47-.25a.92.92,0,0,1-.24-.13l-.23-.14-.46-.31a8.41,8.41,0,0,1-.86-.72l-.2-.2a.47.47,0,0,1-.1-.1l-.1-.11L86.85,61l-.34-.47-.17-.25L86.2,60A8.66,8.66,0,0,1,85.68,59l-.2-.57,0-.14,0-.15-.07-.29-.07-.29-.05-.3,0-.31,0-.15v-.15l0-.61c0-.2,0-.41,0-.62a7.43,7.43,0,0,1,2-4.45l.44-.43c.14-.14.32-.25.48-.38l.11-.09.13-.09.26-.16.26-.16.27-.14.26-.14.14-.07.14-.06.55-.22a10.77,10.77,0,0,1,1.15-.3l.28-.05.3,0a5.44,5.44,0,0,1,.58,0h.71l.15,0,.28,0a10.68,10.68,0,0,1,1.11.18c.18,0,.35.1.53.15l.26.08.25.09.5.2.47.24a9.77,9.77,0,0,1,.88.53,3.9,3.9,0,0,1,.4.31c.14.1.26.2.39.31l.34.33.17.16.16.18.3.35c.1.12.17.25.26.37s.17.23.25.36l.22.37a7.9,7.9,0,0,1,.93,2.85,7,7,0,0,1,0,2.24,3,3,0,0,1-.09.43c0,.13-.07.25-.1.37s-.06.22-.09.31l-.1.25a3.12,3.12,0,0,0-.14.34C100.51,59.67,100.48,59.73,100.48,59.73Z" fill="#263238"/><path d="M100.29,57.49s0,0,0-.06l.07-.18a.83.83,0,0,0,0-.12.62.62,0,0,0,0-.16,2.23,2.23,0,0,0,.09-.39,3.38,3.38,0,0,0,0-1.1A3.94,3.94,0,0,0,99.15,53a4.19,4.19,0,0,0-2.79-1,5,5,0,0,0-.56.07,5.12,5.12,0,0,0-.56.15,5.05,5.05,0,0,0-.53.24,3.33,3.33,0,0,0-.95.71,3.63,3.63,0,0,0-.92,3.35c0,.19.1.38.17.57a3.5,3.5,0,0,0,.26.51,3.94,3.94,0,0,0,.31.48,4.86,4.86,0,0,0,.38.41,4.05,4.05,0,0,0,1.82,1,4,4,0,0,0,1.65.08A3.7,3.7,0,0,0,99,59a3.45,3.45,0,0,0,.83-.74A2.43,2.43,0,0,0,100,58l.09-.13.06-.12.09-.16,0,0a.08.08,0,0,1,0,0l-.08.17,0,.12-.09.14a3.43,3.43,0,0,1-.24.33,3.66,3.66,0,0,1-.82.75,4,4,0,0,1-1.54.61,4.23,4.23,0,0,1-3.54-1.1,5.14,5.14,0,0,1-.38-.42,4.07,4.07,0,0,1-.33-.48,5.2,5.2,0,0,1-.26-.53,4.11,4.11,0,0,1-.17-.57,3.58,3.58,0,0,1-.09-1.22,3.75,3.75,0,0,1,1-2.22,3.69,3.69,0,0,1,1-.73,5.22,5.22,0,0,1,.54-.24,4,4,0,0,1,.57-.14,3.83,3.83,0,0,1,.58-.07,5.42,5.42,0,0,1,.57,0,4.35,4.35,0,0,1,2,.74,4.05,4.05,0,0,1,1.15,1.22,4,4,0,0,1,.55,1.56,3.5,3.5,0,0,1,0,1.12c0,.13-.06.26-.1.39s0,.11,0,.15a.5.5,0,0,1,0,.13l-.08.16A.19.19,0,0,1,100.29,57.49Z" fill="#263238"/><path d="M89.34,48.9a1,1,0,0,1-.19.12c-.13.07-.31.18-.53.33a7.54,7.54,0,0,0-.73.53,8.65,8.65,0,0,0-1.52,1.6c-.19.28-.36.53-.49.75l-.29.54a.72.72,0,0,1-.11.19,1.8,1.8,0,0,1,.08-.21c.06-.13.15-.32.27-.55a7,7,0,0,1,.48-.77,8,8,0,0,1,1.53-1.61c.24-.19.49-.36.75-.53l.54-.3Z" fill="#fff"/><path d="M85,52.62a14.79,14.79,0,0,1-1.63,0,14.91,14.91,0,0,1-1.64,0c.54,0,1.09,0,1.63,0S84.42,52.58,85,52.62Z" fill="#fff"/><path d="M79.69,53.89H77.52c-1.34,0-3.19,0-5.23-.08s-3.9-.15-5.24-.22l-1.59-.09-.43,0h0l.43,0,1.59.07c1.34.05,3.19.13,5.23.19s3.9.09,5.24.11l1.58,0h.59Z" fill="#fff"/><path d="M98.52,52.09s-.25-.16-.67-.33a3.87,3.87,0,0,0-1.74-.31,3.62,3.62,0,0,0-1.68.47,7.18,7.18,0,0,0-.61.39l.14-.14a2.63,2.63,0,0,1,.44-.3,3.47,3.47,0,0,1,1.7-.5,3.89,3.89,0,0,1,1.77.34,3.67,3.67,0,0,1,.48.26A1,1,0,0,1,98.52,52.09Z" fill="#fff"/><path d="M100,51.87a.8.8,0,0,1-.15-.17c-.09-.11-.22-.26-.4-.45a7.73,7.73,0,0,0-.64-.62,9.71,9.71,0,0,0-.88-.67,9.81,9.81,0,0,0-1-.55c-.27-.13-.54-.25-.82-.36l-.58-.2-.21-.07a.78.78,0,0,1,.22,0c.14,0,.34.09.59.17s.56.22.84.35a9.23,9.23,0,0,1,1,.56,8.16,8.16,0,0,1,.88.67c.22.21.44.42.64.64s.29.36.38.48A1.13,1.13,0,0,1,100,51.87Z" fill="#fff"/></svg>